<?xml version="1.0" encoding="utf-8" standalone="no"?>
<!DOCTYPE svg PUBLIC "-//W3C//DTD SVG 1.1//EN"
  "http://www.w3.org/Graphics/SVG/1.1/DTD/svg11.dtd">
<svg xmlns:xlink="http://www.w3.org/1999/xlink" width="702.80066pt" height="496.597969pt" viewBox="0 0 702.80066 496.597969" xmlns="http://www.w3.org/2000/svg" version="1.1">
 <metadata>
  <rdf:RDF xmlns:dc="http://purl.org/dc/elements/1.1/" xmlns:cc="http://creativecommons.org/ns#" xmlns:rdf="http://www.w3.org/1999/02/22-rdf-syntax-ns#">
   <cc:Work>
    <dc:type rdf:resource="http://purl.org/dc/dcmitype/StillImage"/>
    <dc:date>2026-03-06T05:16:24.994666</dc:date>
    <dc:format>image/svg+xml</dc:format>
    <dc:creator>
     <cc:Agent>
      <dc:title>Matplotlib v3.10.8, https://matplotlib.org/</dc:title>
     </cc:Agent>
    </dc:creator>
   </cc:Work>
  </rdf:RDF>
 </metadata>
 <defs>
  <style type="text/css">*{stroke-linejoin: round; stroke-linecap: butt}</style>
 </defs>
 <g id="figure_1">
  <g id="patch_1">
   <path d="M 0 496.597969 
L 702.80066 496.597969 
L 702.80066 0 
L 0 0 
z
" style="fill: #ffffff"/>
  </g>
  <g id="axes_1">
   <g id="patch_2">
    <path d="M 26.683038 480.4706 
L 169.558646 480.4706 
Q 179.300165 480.4706 179.300165 471.543232 
L 179.300165 54.932706 
Q 179.300165 46.005337 169.558646 46.005337 
L 26.683038 46.005337 
Q 16.941519 46.005337 16.941519 54.932706 
L 16.941519 471.543232 
Q 16.941519 480.4706 26.683038 480.4706 
z
" clip-path="url(#p84aea5c43a)" style="fill: #e3f2fd; stroke: #1565c0; stroke-width: 2.5; stroke-linejoin: miter"/>
   </g>
   <g id="patch_3">
    <path d="M 36.424556 203.722179 
L 159.817128 203.722179 
Q 166.311473 203.722179 166.311473 197.7706 
L 166.311473 120.400074 
Q 166.311473 114.448495 159.817128 114.448495 
L 36.424556 114.448495 
Q 29.93021 114.448495 29.93021 120.400074 
L 29.93021 197.7706 
Q 29.93021 203.722179 36.424556 203.722179 
z
" clip-path="url(#p84aea5c43a)" style="fill: #ffffff; stroke: #1565c0; stroke-width: 1.5; stroke-linejoin: miter"/>
   </g>
   <g id="patch_4">
    <path d="M 36.424556 304.899021 
L 159.817128 304.899021 
Q 166.311473 304.899021 166.311473 298.947442 
L 166.311473 221.576916 
Q 166.311473 215.625337 159.817128 215.625337 
L 36.424556 215.625337 
Q 29.93021 215.625337 29.93021 221.576916 
L 29.93021 298.947442 
Q 29.93021 304.899021 36.424556 304.899021 
z
" clip-path="url(#p84aea5c43a)" style="fill: #ffffff; stroke: #1565c0; stroke-width: 1.5; stroke-linejoin: miter"/>
   </g>
   <g id="patch_5">
    <path d="M 36.424556 423.9306 
L 159.817128 423.9306 
Q 166.311473 423.9306 166.311473 417.979021 
L 166.311473 340.608495 
Q 166.311473 334.656916 159.817128 334.656916 
L 36.424556 334.656916 
Q 29.93021 334.656916 29.93021 340.608495 
L 29.93021 417.979021 
Q 29.93021 423.9306 36.424556 423.9306 
z
" clip-path="url(#p84aea5c43a)" style="fill: #ffffff; stroke: #1565c0; stroke-width: 1.5; stroke-linejoin: miter"/>
   </g>
   <g id="patch_6">
    <path d="M 208.524721 480.4706 
L 364.389022 480.4706 
Q 374.130541 480.4706 374.130541 471.543232 
L 374.130541 54.932706 
Q 374.130541 46.005337 364.389022 46.005337 
L 208.524721 46.005337 
Q 198.783203 46.005337 198.783203 54.932706 
L 198.783203 471.543232 
Q 198.783203 480.4706 208.524721 480.4706 
z
" clip-path="url(#p84aea5c43a)" style="fill: #e8f5e9; stroke: #2e7d32; stroke-width: 2.5; stroke-linejoin: miter"/>
   </g>
   <g id="patch_7">
    <path d="M 218.26624 190.628706 
L 354.647503 190.628706 
Q 359.84298 190.628706 359.84298 185.867442 
L 359.84298 120.400074 
Q 359.84298 115.638811 354.647503 115.638811 
L 218.26624 115.638811 
Q 213.070764 115.638811 213.070764 120.400074 
L 213.070764 185.867442 
Q 213.070764 190.628706 218.26624 190.628706 
z
" clip-path="url(#p84aea5c43a)" style="fill: #ffffff; stroke: #2c5282; stroke-width: 1.5; stroke-linejoin: miter"/>
   </g>
   <g id="patch_8">
    <path d="M 218.26624 285.853969 
L 354.647503 285.853969 
Q 359.84298 285.853969 359.84298 281.092706 
L 359.84298 215.625337 
Q 359.84298 210.864074 354.647503 210.864074 
L 218.26624 210.864074 
Q 213.070764 210.864074 213.070764 215.625337 
L 213.070764 281.092706 
Q 213.070764 285.853969 218.26624 285.853969 
z
" clip-path="url(#p84aea5c43a)" style="fill: #ffffff; stroke: #276749; stroke-width: 1.5; stroke-linejoin: miter"/>
   </g>
   <g id="patch_9">
    <path d="M 218.26624 375.127653 
L 354.647503 375.127653 
Q 359.84298 375.127653 359.84298 370.36639 
L 359.84298 304.899021 
Q 359.84298 300.137758 354.647503 300.137758 
L 218.26624 300.137758 
Q 213.070764 300.137758 213.070764 304.899021 
L 213.070764 370.36639 
Q 213.070764 375.127653 218.26624 375.127653 
z
" clip-path="url(#p84aea5c43a)" style="fill: #ffffff; stroke: #2b6cb0; stroke-width: 1.5; stroke-linejoin: miter"/>
   </g>
   <g id="patch_10">
    <path d="M 218.26624 452.498179 
L 354.647503 452.498179 
Q 359.84298 452.498179 359.84298 447.736916 
L 359.84298 382.269548 
Q 359.84298 377.508285 354.647503 377.508285 
L 218.26624 377.508285 
Q 213.070764 377.508285 213.070764 382.269548 
L 213.070764 447.736916 
Q 213.070764 452.498179 218.26624 452.498179 
z
" clip-path="url(#p84aea5c43a)" style="fill: #ffffff; stroke: #c53030; stroke-width: 1.5; stroke-linejoin: miter"/>
   </g>
   <g id="patch_11">
    <path d="M 403.355097 480.4706 
L 533.242014 480.4706 
Q 542.983533 480.4706 542.983533 471.543232 
L 542.983533 54.932706 
Q 542.983533 46.005337 533.242014 46.005337 
L 403.355097 46.005337 
Q 393.613578 46.005337 393.613578 54.932706 
L 393.613578 471.543232 
Q 393.613578 480.4706 403.355097 480.4706 
z
" clip-path="url(#p84aea5c43a)" style="fill: #fff3e0; stroke: #e65100; stroke-width: 2.5; stroke-linejoin: miter"/>
   </g>
   <g id="patch_12">
    <path d="M 413.096616 190.628706 
L 523.500495 190.628706 
Q 528.695972 190.628706 528.695972 185.867442 
L 528.695972 126.351653 
Q 528.695972 121.59039 523.500495 121.59039 
L 413.096616 121.59039 
Q 407.901139 121.59039 407.901139 126.351653 
L 407.901139 185.867442 
Q 407.901139 190.628706 413.096616 190.628706 
z
" clip-path="url(#p84aea5c43a)" style="fill: #ffffff; stroke: #e53e3e; stroke-width: 2; stroke-linejoin: miter"/>
   </g>
   <g id="patch_13">
    <path d="M 413.096616 279.90239 
L 523.500495 279.90239 
Q 528.695972 279.90239 528.695972 275.141127 
L 528.695972 215.625337 
Q 528.695972 210.864074 523.500495 210.864074 
L 413.096616 210.864074 
Q 407.901139 210.864074 407.901139 215.625337 
L 407.901139 275.141127 
Q 407.901139 279.90239 413.096616 279.90239 
z
" clip-path="url(#p84aea5c43a)" style="fill: #ffffff; stroke: #3182ce; stroke-width: 2; stroke-linejoin: miter"/>
   </g>
   <g id="patch_14">
    <path d="M 413.096616 369.176074 
L 523.500495 369.176074 
Q 528.695972 369.176074 528.695972 364.414811 
L 528.695972 304.899021 
Q 528.695972 300.137758 523.500495 300.137758 
L 413.096616 300.137758 
Q 407.901139 300.137758 407.901139 304.899021 
L 407.901139 364.414811 
Q 407.901139 369.176074 413.096616 369.176074 
z
" clip-path="url(#p84aea5c43a)" style="fill: #ffffff; stroke: #d69e2e; stroke-width: 2; stroke-linejoin: miter"/>
   </g>
   <g id="patch_15">
    <path d="M 413.096616 452.498179 
L 523.500495 452.498179 
Q 528.695972 452.498179 528.695972 447.736916 
L 528.695972 388.221127 
Q 528.695972 383.459863 523.500495 383.459863 
L 413.096616 383.459863 
Q 407.901139 383.459863 407.901139 388.221127 
L 407.901139 447.736916 
Q 407.901139 452.498179 413.096616 452.498179 
z
" clip-path="url(#p84aea5c43a)" style="fill: #ffffff; stroke: #e65100; stroke-width: 2; stroke-linejoin: miter"/>
   </g>
   <g id="patch_16">
    <path d="M 565.713743 480.4706 
L 682.611969 480.4706 
Q 692.353487 480.4706 692.353487 471.543232 
L 692.353487 54.932706 
Q 692.353487 46.005337 682.611969 46.005337 
L 565.713743 46.005337 
Q 555.972225 46.005337 555.972225 54.932706 
L 555.972225 471.543232 
Q 555.972225 480.4706 565.713743 480.4706 
z
" clip-path="url(#p84aea5c43a)" style="fill: #fff5f5; stroke: #c53030; stroke-width: 2.5; stroke-linejoin: miter"/>
   </g>
   <g id="patch_17">
    <path d="M 572.208089 227.528495 
L 676.117623 227.528495 
Q 682.611969 227.528495 682.611969 221.576916 
L 682.611969 114.448495 
Q 682.611969 108.496916 676.117623 108.496916 
L 572.208089 108.496916 
Q 565.713743 108.496916 565.713743 114.448495 
L 565.713743 221.576916 
Q 565.713743 227.528495 572.208089 227.528495 
z
" clip-path="url(#p84aea5c43a)" style="fill: #ffffff; stroke: #7b1fa2; stroke-width: 2; stroke-linejoin: miter"/>
   </g>
   <g id="patch_18">
    <path d="M 572.208089 328.705337 
L 676.117623 328.705337 
Q 682.611969 328.705337 682.611969 322.753758 
L 682.611969 245.383232 
Q 682.611969 239.431653 676.117623 239.431653 
L 572.208089 239.431653 
Q 565.713743 239.431653 565.713743 245.383232 
L 565.713743 322.753758 
Q 565.713743 328.705337 572.208089 328.705337 
z
" clip-path="url(#p84aea5c43a)" style="fill: #ffffff; stroke: #e65100; stroke-width: 2; stroke-linejoin: miter"/>
   </g>
   <g id="patch_19">
    <path d="M 572.208089 459.640074 
L 676.117623 459.640074 
Q 682.611969 459.640074 682.611969 453.688495 
L 682.611969 346.560074 
Q 682.611969 340.608495 676.117623 340.608495 
L 572.208089 340.608495 
Q 565.713743 340.608495 565.713743 346.560074 
L 565.713743 453.688495 
Q 565.713743 459.640074 572.208089 459.640074 
z
" clip-path="url(#p84aea5c43a)" style="fill: #e53e3e; stroke: #9b2c2c; stroke-width: 3; stroke-linejoin: miter"/>
   </g>
   <g id="text_1">
    <!-- Stage 1: Data -->
    <g style="fill: #1565c0" transform="translate(40.245451 81.714811) scale(0.15 -0.15)">
     <defs>
      <path id="DejaVuSans-Bold-53" d="M 3834 4519 
L 3834 3531 
Q 3450 3703 3084 3790 
Q 2719 3878 2394 3878 
Q 1963 3878 1756 3759 
Q 1550 3641 1550 3391 
Q 1550 3203 1689 3098 
Q 1828 2994 2194 2919 
L 2706 2816 
Q 3484 2659 3812 2340 
Q 4141 2022 4141 1434 
Q 4141 663 3683 286 
Q 3225 -91 2284 -91 
Q 1841 -91 1394 -6 
Q 947 78 500 244 
L 500 1259 
Q 947 1022 1364 901 
Q 1781 781 2169 781 
Q 2563 781 2772 912 
Q 2981 1044 2981 1288 
Q 2981 1506 2839 1625 
Q 2697 1744 2272 1838 
L 1806 1941 
Q 1106 2091 782 2419 
Q 459 2747 459 3303 
Q 459 4000 909 4375 
Q 1359 4750 2203 4750 
Q 2588 4750 2994 4692 
Q 3400 4634 3834 4519 
z
" transform="scale(0.015625)"/>
      <path id="DejaVuSans-Bold-74" d="M 1759 4494 
L 1759 3500 
L 2913 3500 
L 2913 2700 
L 1759 2700 
L 1759 1216 
Q 1759 972 1856 886 
Q 1953 800 2241 800 
L 2816 800 
L 2816 0 
L 1856 0 
Q 1194 0 917 276 
Q 641 553 641 1216 
L 641 2700 
L 84 2700 
L 84 3500 
L 641 3500 
L 641 4494 
L 1759 4494 
z
" transform="scale(0.015625)"/>
      <path id="DejaVuSans-Bold-61" d="M 2106 1575 
Q 1756 1575 1579 1456 
Q 1403 1338 1403 1106 
Q 1403 894 1545 773 
Q 1688 653 1941 653 
Q 2256 653 2472 879 
Q 2688 1106 2688 1447 
L 2688 1575 
L 2106 1575 
z
M 3816 1997 
L 3816 0 
L 2688 0 
L 2688 519 
Q 2463 200 2181 54 
Q 1900 -91 1497 -91 
Q 953 -91 614 226 
Q 275 544 275 1050 
Q 275 1666 698 1953 
Q 1122 2241 2028 2241 
L 2688 2241 
L 2688 2328 
Q 2688 2594 2478 2717 
Q 2269 2841 1825 2841 
Q 1466 2841 1156 2769 
Q 847 2697 581 2553 
L 581 3406 
Q 941 3494 1303 3539 
Q 1666 3584 2028 3584 
Q 2975 3584 3395 3211 
Q 3816 2838 3816 1997 
z
" transform="scale(0.015625)"/>
      <path id="DejaVuSans-Bold-67" d="M 2919 594 
Q 2688 288 2409 144 
Q 2131 0 1766 0 
Q 1125 0 706 504 
Q 288 1009 288 1791 
Q 288 2575 706 3076 
Q 1125 3578 1766 3578 
Q 2131 3578 2409 3434 
Q 2688 3291 2919 2981 
L 2919 3500 
L 4044 3500 
L 4044 353 
Q 4044 -491 3511 -936 
Q 2978 -1381 1966 -1381 
Q 1638 -1381 1331 -1331 
Q 1025 -1281 716 -1178 
L 716 -306 
Q 1009 -475 1290 -558 
Q 1572 -641 1856 -641 
Q 2406 -641 2662 -400 
Q 2919 -159 2919 353 
L 2919 594 
z
M 2181 2772 
Q 1834 2772 1640 2515 
Q 1447 2259 1447 1791 
Q 1447 1309 1634 1061 
Q 1822 813 2181 813 
Q 2531 813 2725 1069 
Q 2919 1325 2919 1791 
Q 2919 2259 2725 2515 
Q 2531 2772 2181 2772 
z
" transform="scale(0.015625)"/>
      <path id="DejaVuSans-Bold-65" d="M 4031 1759 
L 4031 1441 
L 1416 1441 
Q 1456 1047 1700 850 
Q 1944 653 2381 653 
Q 2734 653 3104 758 
Q 3475 863 3866 1075 
L 3866 213 
Q 3469 63 3072 -14 
Q 2675 -91 2278 -91 
Q 1328 -91 801 392 
Q 275 875 275 1747 
Q 275 2603 792 3093 
Q 1309 3584 2216 3584 
Q 3041 3584 3536 3087 
Q 4031 2591 4031 1759 
z
M 2881 2131 
Q 2881 2450 2695 2645 
Q 2509 2841 2209 2841 
Q 1884 2841 1681 2658 
Q 1478 2475 1428 2131 
L 2881 2131 
z
" transform="scale(0.015625)"/>
      <path id="DejaVuSans-Bold-20" transform="scale(0.015625)"/>
      <path id="DejaVuSans-Bold-31" d="M 750 831 
L 1813 831 
L 1813 3847 
L 722 3622 
L 722 4441 
L 1806 4666 
L 2950 4666 
L 2950 831 
L 4013 831 
L 4013 0 
L 750 0 
L 750 831 
z
" transform="scale(0.015625)"/>
      <path id="DejaVuSans-Bold-3a" d="M 716 3500 
L 1844 3500 
L 1844 2291 
L 716 2291 
L 716 3500 
z
M 716 1209 
L 1844 1209 
L 1844 0 
L 716 0 
L 716 1209 
z
" transform="scale(0.015625)"/>
      <path id="DejaVuSans-Bold-44" d="M 1791 3756 
L 1791 909 
L 2222 909 
Q 2959 909 3348 1275 
Q 3738 1641 3738 2338 
Q 3738 3031 3350 3393 
Q 2963 3756 2222 3756 
L 1791 3756 
z
M 588 4666 
L 1856 4666 
Q 2919 4666 3439 4514 
Q 3959 4363 4331 4000 
Q 4659 3684 4818 3271 
Q 4978 2859 4978 2338 
Q 4978 1809 4818 1395 
Q 4659 981 4331 666 
Q 3956 303 3431 151 
Q 2906 0 1856 0 
L 588 0 
L 588 4666 
z
" transform="scale(0.015625)"/>
     </defs>
     <use xlink:href="#DejaVuSans-Bold-53"/>
     <use xlink:href="#DejaVuSans-Bold-74" transform="translate(72.021484 0)"/>
     <use xlink:href="#DejaVuSans-Bold-61" transform="translate(119.824219 0)"/>
     <use xlink:href="#DejaVuSans-Bold-67" transform="translate(187.304688 0)"/>
     <use xlink:href="#DejaVuSans-Bold-65" transform="translate(258.886719 0)"/>
     <use xlink:href="#DejaVuSans-Bold-20" transform="translate(326.708984 0)"/>
     <use xlink:href="#DejaVuSans-Bold-31" transform="translate(361.523438 0)"/>
     <use xlink:href="#DejaVuSans-Bold-3a" transform="translate(431.103516 0)"/>
     <use xlink:href="#DejaVuSans-Bold-20" transform="translate(471.09375 0)"/>
     <use xlink:href="#DejaVuSans-Bold-44" transform="translate(505.908203 0)"/>
     <use xlink:href="#DejaVuSans-Bold-61" transform="translate(588.916016 0)"/>
     <use xlink:href="#DejaVuSans-Bold-74" transform="translate(656.396484 0)"/>
     <use xlink:href="#DejaVuSans-Bold-61" transform="translate(704.199219 0)"/>
    </g>
   </g>
   <g id="text_2">
    <!-- OHLCV -->
    <g style="fill: #1565c0" transform="translate(75.128654 158.653689) scale(0.12 -0.12)">
     <defs>
      <path id="DejaVuSans-Bold-4f" d="M 2719 3878 
Q 2169 3878 1866 3472 
Q 1563 3066 1563 2328 
Q 1563 1594 1866 1187 
Q 2169 781 2719 781 
Q 3272 781 3575 1187 
Q 3878 1594 3878 2328 
Q 3878 3066 3575 3472 
Q 3272 3878 2719 3878 
z
M 2719 4750 
Q 3844 4750 4481 4106 
Q 5119 3463 5119 2328 
Q 5119 1197 4481 553 
Q 3844 -91 2719 -91 
Q 1597 -91 958 553 
Q 319 1197 319 2328 
Q 319 3463 958 4106 
Q 1597 4750 2719 4750 
z
" transform="scale(0.015625)"/>
      <path id="DejaVuSans-Bold-48" d="M 588 4666 
L 1791 4666 
L 1791 2888 
L 3566 2888 
L 3566 4666 
L 4769 4666 
L 4769 0 
L 3566 0 
L 3566 1978 
L 1791 1978 
L 1791 0 
L 588 0 
L 588 4666 
z
" transform="scale(0.015625)"/>
      <path id="DejaVuSans-Bold-4c" d="M 588 4666 
L 1791 4666 
L 1791 909 
L 3903 909 
L 3903 0 
L 588 0 
L 588 4666 
z
" transform="scale(0.015625)"/>
      <path id="DejaVuSans-Bold-43" d="M 4288 256 
Q 3956 84 3597 -3 
Q 3238 -91 2847 -91 
Q 1681 -91 1000 561 
Q 319 1213 319 2328 
Q 319 3447 1000 4098 
Q 1681 4750 2847 4750 
Q 3238 4750 3597 4662 
Q 3956 4575 4288 4403 
L 4288 3438 
Q 3953 3666 3628 3772 
Q 3303 3878 2944 3878 
Q 2300 3878 1931 3465 
Q 1563 3053 1563 2328 
Q 1563 1606 1931 1193 
Q 2300 781 2944 781 
Q 3303 781 3628 887 
Q 3953 994 4288 1222 
L 4288 256 
z
" transform="scale(0.015625)"/>
      <path id="DejaVuSans-Bold-56" d="M 31 4666 
L 1241 4666 
L 2478 1222 
L 3713 4666 
L 4922 4666 
L 3194 0 
L 1759 0 
L 31 4666 
z
" transform="scale(0.015625)"/>
     </defs>
     <use xlink:href="#DejaVuSans-Bold-4f"/>
     <use xlink:href="#DejaVuSans-Bold-48" transform="translate(85.009766 0)"/>
     <use xlink:href="#DejaVuSans-Bold-4c" transform="translate(168.701172 0)"/>
     <use xlink:href="#DejaVuSans-Bold-43" transform="translate(232.421875 0)"/>
     <use xlink:href="#DejaVuSans-Bold-56" transform="translate(305.810547 0)"/>
    </g>
    <!-- (11 Assets) -->
    <g style="fill: #1565c0" transform="translate(59.904592 172.091064) scale(0.12 -0.12)">
     <defs>
      <path id="DejaVuSans-Bold-28" d="M 2413 -844 
L 1484 -844 
Q 1006 -72 778 623 
Q 550 1319 550 2003 
Q 550 2688 779 3389 
Q 1009 4091 1484 4856 
L 2413 4856 
Q 2013 4116 1813 3408 
Q 1613 2700 1613 2009 
Q 1613 1319 1811 609 
Q 2009 -100 2413 -844 
z
" transform="scale(0.015625)"/>
      <path id="DejaVuSans-Bold-41" d="M 3419 850 
L 1538 850 
L 1241 0 
L 31 0 
L 1759 4666 
L 3194 4666 
L 4922 0 
L 3713 0 
L 3419 850 
z
M 1838 1716 
L 3116 1716 
L 2478 3572 
L 1838 1716 
z
" transform="scale(0.015625)"/>
      <path id="DejaVuSans-Bold-73" d="M 3272 3391 
L 3272 2541 
Q 2913 2691 2578 2766 
Q 2244 2841 1947 2841 
Q 1628 2841 1473 2761 
Q 1319 2681 1319 2516 
Q 1319 2381 1436 2309 
Q 1553 2238 1856 2203 
L 2053 2175 
Q 2913 2066 3209 1816 
Q 3506 1566 3506 1031 
Q 3506 472 3093 190 
Q 2681 -91 1863 -91 
Q 1516 -91 1145 -36 
Q 775 19 384 128 
L 384 978 
Q 719 816 1070 734 
Q 1422 653 1784 653 
Q 2113 653 2278 743 
Q 2444 834 2444 1013 
Q 2444 1163 2330 1236 
Q 2216 1309 1875 1350 
L 1678 1375 
Q 931 1469 631 1722 
Q 331 1975 331 2491 
Q 331 3047 712 3315 
Q 1094 3584 1881 3584 
Q 2191 3584 2531 3537 
Q 2872 3491 3272 3391 
z
" transform="scale(0.015625)"/>
      <path id="DejaVuSans-Bold-29" d="M 513 -844 
Q 913 -100 1113 609 
Q 1313 1319 1313 2009 
Q 1313 2700 1113 3408 
Q 913 4116 513 4856 
L 1441 4856 
Q 1916 4091 2145 3389 
Q 2375 2688 2375 2003 
Q 2375 1319 2147 623 
Q 1919 -72 1441 -844 
L 513 -844 
z
" transform="scale(0.015625)"/>
     </defs>
     <use xlink:href="#DejaVuSans-Bold-28"/>
     <use xlink:href="#DejaVuSans-Bold-31" transform="translate(45.703125 0)"/>
     <use xlink:href="#DejaVuSans-Bold-31" transform="translate(115.283203 0)"/>
     <use xlink:href="#DejaVuSans-Bold-20" transform="translate(184.863281 0)"/>
     <use xlink:href="#DejaVuSans-Bold-41" transform="translate(219.677734 0)"/>
     <use xlink:href="#DejaVuSans-Bold-73" transform="translate(297.070312 0)"/>
     <use xlink:href="#DejaVuSans-Bold-73" transform="translate(356.591797 0)"/>
     <use xlink:href="#DejaVuSans-Bold-65" transform="translate(416.113281 0)"/>
     <use xlink:href="#DejaVuSans-Bold-74" transform="translate(483.935547 0)"/>
     <use xlink:href="#DejaVuSans-Bold-73" transform="translate(531.738281 0)"/>
     <use xlink:href="#DejaVuSans-Bold-29" transform="translate(591.259766 0)"/>
    </g>
   </g>
   <g id="text_3">
    <!-- VIX family -->
    <g style="fill: #1565c0" transform="translate(63.594592 259.783656) scale(0.12 -0.12)">
     <defs>
      <path id="DejaVuSans-Bold-49" d="M 588 4666 
L 1791 4666 
L 1791 0 
L 588 0 
L 588 4666 
z
" transform="scale(0.015625)"/>
      <path id="DejaVuSans-Bold-58" d="M 3188 2381 
L 4806 0 
L 3553 0 
L 2463 1594 
L 1381 0 
L 122 0 
L 1741 2381 
L 184 4666 
L 1441 4666 
L 2463 3163 
L 3481 4666 
L 4744 4666 
L 3188 2381 
z
" transform="scale(0.015625)"/>
      <path id="DejaVuSans-Bold-66" d="M 2841 4863 
L 2841 4128 
L 2222 4128 
Q 1984 4128 1890 4042 
Q 1797 3956 1797 3744 
L 1797 3500 
L 2753 3500 
L 2753 2700 
L 1797 2700 
L 1797 0 
L 678 0 
L 678 2700 
L 122 2700 
L 122 3500 
L 678 3500 
L 678 3744 
Q 678 4316 997 4589 
Q 1316 4863 1984 4863 
L 2841 4863 
z
" transform="scale(0.015625)"/>
      <path id="DejaVuSans-Bold-6d" d="M 3781 2919 
Q 3994 3244 4286 3414 
Q 4578 3584 4928 3584 
Q 5531 3584 5847 3212 
Q 6163 2841 6163 2131 
L 6163 0 
L 5038 0 
L 5038 1825 
Q 5041 1866 5042 1909 
Q 5044 1953 5044 2034 
Q 5044 2406 4934 2573 
Q 4825 2741 4581 2741 
Q 4263 2741 4089 2478 
Q 3916 2216 3909 1719 
L 3909 0 
L 2784 0 
L 2784 1825 
Q 2784 2406 2684 2573 
Q 2584 2741 2328 2741 
Q 2006 2741 1831 2477 
Q 1656 2213 1656 1722 
L 1656 0 
L 531 0 
L 531 3500 
L 1656 3500 
L 1656 2988 
Q 1863 3284 2130 3434 
Q 2397 3584 2719 3584 
Q 3081 3584 3359 3409 
Q 3638 3234 3781 2919 
z
" transform="scale(0.015625)"/>
      <path id="DejaVuSans-Bold-69" d="M 538 3500 
L 1656 3500 
L 1656 0 
L 538 0 
L 538 3500 
z
M 538 4863 
L 1656 4863 
L 1656 3950 
L 538 3950 
L 538 4863 
z
" transform="scale(0.015625)"/>
      <path id="DejaVuSans-Bold-6c" d="M 538 4863 
L 1656 4863 
L 1656 0 
L 538 0 
L 538 4863 
z
" transform="scale(0.015625)"/>
      <path id="DejaVuSans-Bold-79" d="M 78 3500 
L 1197 3500 
L 2138 1125 
L 2938 3500 
L 4056 3500 
L 2584 -331 
Q 2363 -916 2067 -1148 
Q 1772 -1381 1288 -1381 
L 641 -1381 
L 641 -647 
L 991 -647 
Q 1275 -647 1404 -556 
Q 1534 -466 1606 -231 
L 1638 -134 
L 78 3500 
z
" transform="scale(0.015625)"/>
     </defs>
     <use xlink:href="#DejaVuSans-Bold-56"/>
     <use xlink:href="#DejaVuSans-Bold-49" transform="translate(77.392578 0)"/>
     <use xlink:href="#DejaVuSans-Bold-58" transform="translate(114.599609 0)"/>
     <use xlink:href="#DejaVuSans-Bold-20" transform="translate(191.699219 0)"/>
     <use xlink:href="#DejaVuSans-Bold-66" transform="translate(226.513672 0)"/>
     <use xlink:href="#DejaVuSans-Bold-61" transform="translate(270.019531 0)"/>
     <use xlink:href="#DejaVuSans-Bold-6d" transform="translate(337.5 0)"/>
     <use xlink:href="#DejaVuSans-Bold-69" transform="translate(441.699219 0)"/>
     <use xlink:href="#DejaVuSans-Bold-6c" transform="translate(475.976562 0)"/>
     <use xlink:href="#DejaVuSans-Bold-79" transform="translate(510.253906 0)"/>
    </g>
    <!-- (30d, 3M, 9D) -->
    <g style="fill: #1565c0" transform="translate(51.955529 273.314781) scale(0.12 -0.12)">
     <defs>
      <path id="DejaVuSans-Bold-33" d="M 2981 2516 
Q 3453 2394 3698 2092 
Q 3944 1791 3944 1325 
Q 3944 631 3412 270 
Q 2881 -91 1863 -91 
Q 1503 -91 1142 -33 
Q 781 25 428 141 
L 428 1069 
Q 766 900 1098 814 
Q 1431 728 1753 728 
Q 2231 728 2486 893 
Q 2741 1059 2741 1369 
Q 2741 1688 2480 1852 
Q 2219 2016 1709 2016 
L 1228 2016 
L 1228 2791 
L 1734 2791 
Q 2188 2791 2409 2933 
Q 2631 3075 2631 3366 
Q 2631 3634 2415 3781 
Q 2200 3928 1806 3928 
Q 1516 3928 1219 3862 
Q 922 3797 628 3669 
L 628 4550 
Q 984 4650 1334 4700 
Q 1684 4750 2022 4750 
Q 2931 4750 3382 4451 
Q 3834 4153 3834 3553 
Q 3834 3144 3618 2883 
Q 3403 2622 2981 2516 
z
" transform="scale(0.015625)"/>
      <path id="DejaVuSans-Bold-30" d="M 2944 2338 
Q 2944 3213 2780 3570 
Q 2616 3928 2228 3928 
Q 1841 3928 1675 3570 
Q 1509 3213 1509 2338 
Q 1509 1453 1675 1090 
Q 1841 728 2228 728 
Q 2613 728 2778 1090 
Q 2944 1453 2944 2338 
z
M 4147 2328 
Q 4147 1169 3647 539 
Q 3147 -91 2228 -91 
Q 1306 -91 806 539 
Q 306 1169 306 2328 
Q 306 3491 806 4120 
Q 1306 4750 2228 4750 
Q 3147 4750 3647 4120 
Q 4147 3491 4147 2328 
z
" transform="scale(0.015625)"/>
      <path id="DejaVuSans-Bold-64" d="M 2919 2988 
L 2919 4863 
L 4044 4863 
L 4044 0 
L 2919 0 
L 2919 506 
Q 2688 197 2409 53 
Q 2131 -91 1766 -91 
Q 1119 -91 703 423 
Q 288 938 288 1747 
Q 288 2556 703 3070 
Q 1119 3584 1766 3584 
Q 2128 3584 2408 3439 
Q 2688 3294 2919 2988 
z
M 2181 722 
Q 2541 722 2730 984 
Q 2919 1247 2919 1747 
Q 2919 2247 2730 2509 
Q 2541 2772 2181 2772 
Q 1825 2772 1636 2509 
Q 1447 2247 1447 1747 
Q 1447 1247 1636 984 
Q 1825 722 2181 722 
z
" transform="scale(0.015625)"/>
      <path id="DejaVuSans-Bold-2c" d="M 653 1209 
L 1778 1209 
L 1778 256 
L 1006 -909 
L 341 -909 
L 653 256 
L 653 1209 
z
" transform="scale(0.015625)"/>
      <path id="DejaVuSans-Bold-4d" d="M 588 4666 
L 2119 4666 
L 3181 2169 
L 4250 4666 
L 5778 4666 
L 5778 0 
L 4641 0 
L 4641 3413 
L 3566 897 
L 2803 897 
L 1728 3413 
L 1728 0 
L 588 0 
L 588 4666 
z
" transform="scale(0.015625)"/>
      <path id="DejaVuSans-Bold-39" d="M 641 103 
L 641 966 
Q 928 831 1190 764 
Q 1453 697 1709 697 
Q 2247 697 2547 995 
Q 2847 1294 2900 1881 
Q 2688 1725 2447 1647 
Q 2206 1569 1925 1569 
Q 1209 1569 770 1986 
Q 331 2403 331 3084 
Q 331 3838 820 4291 
Q 1309 4744 2131 4744 
Q 3044 4744 3544 4128 
Q 4044 3513 4044 2388 
Q 4044 1231 3459 570 
Q 2875 -91 1856 -91 
Q 1528 -91 1228 -42 
Q 928 6 641 103 
z
M 2125 2350 
Q 2441 2350 2600 2554 
Q 2759 2759 2759 3169 
Q 2759 3575 2600 3781 
Q 2441 3988 2125 3988 
Q 1809 3988 1650 3781 
Q 1491 3575 1491 3169 
Q 1491 2759 1650 2554 
Q 1809 2350 2125 2350 
z
" transform="scale(0.015625)"/>
     </defs>
     <use xlink:href="#DejaVuSans-Bold-28"/>
     <use xlink:href="#DejaVuSans-Bold-33" transform="translate(45.703125 0)"/>
     <use xlink:href="#DejaVuSans-Bold-30" transform="translate(115.283203 0)"/>
     <use xlink:href="#DejaVuSans-Bold-64" transform="translate(184.863281 0)"/>
     <use xlink:href="#DejaVuSans-Bold-2c" transform="translate(256.445312 0)"/>
     <use xlink:href="#DejaVuSans-Bold-20" transform="translate(294.433594 0)"/>
     <use xlink:href="#DejaVuSans-Bold-33" transform="translate(329.248047 0)"/>
     <use xlink:href="#DejaVuSans-Bold-4d" transform="translate(398.828125 0)"/>
     <use xlink:href="#DejaVuSans-Bold-2c" transform="translate(498.339844 0)"/>
     <use xlink:href="#DejaVuSans-Bold-20" transform="translate(536.328125 0)"/>
     <use xlink:href="#DejaVuSans-Bold-39" transform="translate(571.142578 0)"/>
     <use xlink:href="#DejaVuSans-Bold-44" transform="translate(640.722656 0)"/>
     <use xlink:href="#DejaVuSans-Bold-29" transform="translate(723.730469 0)"/>
    </g>
   </g>
   <g id="text_4">
    <!-- Benchmark -->
    <g style="fill: #1565c0" transform="translate(60.128654 378.86211) scale(0.12 -0.12)">
     <defs>
      <path id="DejaVuSans-Bold-42" d="M 2456 2859 
Q 2741 2859 2887 2984 
Q 3034 3109 3034 3353 
Q 3034 3594 2887 3720 
Q 2741 3847 2456 3847 
L 1791 3847 
L 1791 2859 
L 2456 2859 
z
M 2497 819 
Q 2859 819 3042 972 
Q 3225 1125 3225 1434 
Q 3225 1738 3044 1889 
Q 2863 2041 2497 2041 
L 1791 2041 
L 1791 819 
L 2497 819 
z
M 3616 2497 
Q 4003 2384 4215 2081 
Q 4428 1778 4428 1338 
Q 4428 663 3972 331 
Q 3516 0 2584 0 
L 588 0 
L 588 4666 
L 2394 4666 
Q 3366 4666 3802 4372 
Q 4238 4078 4238 3431 
Q 4238 3091 4078 2852 
Q 3919 2613 3616 2497 
z
" transform="scale(0.015625)"/>
      <path id="DejaVuSans-Bold-6e" d="M 4056 2131 
L 4056 0 
L 2931 0 
L 2931 347 
L 2931 1631 
Q 2931 2084 2911 2256 
Q 2891 2428 2841 2509 
Q 2775 2619 2662 2680 
Q 2550 2741 2406 2741 
Q 2056 2741 1856 2470 
Q 1656 2200 1656 1722 
L 1656 0 
L 538 0 
L 538 3500 
L 1656 3500 
L 1656 2988 
Q 1909 3294 2193 3439 
Q 2478 3584 2822 3584 
Q 3428 3584 3742 3212 
Q 4056 2841 4056 2131 
z
" transform="scale(0.015625)"/>
      <path id="DejaVuSans-Bold-63" d="M 3366 3391 
L 3366 2478 
Q 3138 2634 2908 2709 
Q 2678 2784 2431 2784 
Q 1963 2784 1702 2511 
Q 1441 2238 1441 1747 
Q 1441 1256 1702 982 
Q 1963 709 2431 709 
Q 2694 709 2930 787 
Q 3166 866 3366 1019 
L 3366 103 
Q 3103 6 2833 -42 
Q 2563 -91 2291 -91 
Q 1344 -91 809 395 
Q 275 881 275 1747 
Q 275 2613 809 3098 
Q 1344 3584 2291 3584 
Q 2566 3584 2833 3536 
Q 3100 3488 3366 3391 
z
" transform="scale(0.015625)"/>
      <path id="DejaVuSans-Bold-68" d="M 4056 2131 
L 4056 0 
L 2931 0 
L 2931 347 
L 2931 1625 
Q 2931 2084 2911 2256 
Q 2891 2428 2841 2509 
Q 2775 2619 2662 2680 
Q 2550 2741 2406 2741 
Q 2056 2741 1856 2470 
Q 1656 2200 1656 1722 
L 1656 0 
L 538 0 
L 538 4863 
L 1656 4863 
L 1656 2988 
Q 1909 3294 2193 3439 
Q 2478 3584 2822 3584 
Q 3428 3584 3742 3212 
Q 4056 2841 4056 2131 
z
" transform="scale(0.015625)"/>
      <path id="DejaVuSans-Bold-72" d="M 3138 2547 
Q 2991 2616 2845 2648 
Q 2700 2681 2553 2681 
Q 2122 2681 1889 2404 
Q 1656 2128 1656 1613 
L 1656 0 
L 538 0 
L 538 3500 
L 1656 3500 
L 1656 2925 
Q 1872 3269 2151 3426 
Q 2431 3584 2822 3584 
Q 2878 3584 2943 3579 
Q 3009 3575 3134 3559 
L 3138 2547 
z
" transform="scale(0.015625)"/>
      <path id="DejaVuSans-Bold-6b" d="M 538 4863 
L 1656 4863 
L 1656 2216 
L 2944 3500 
L 4244 3500 
L 2534 1894 
L 4378 0 
L 3022 0 
L 1656 1459 
L 1656 0 
L 538 0 
L 538 4863 
z
" transform="scale(0.015625)"/>
     </defs>
     <use xlink:href="#DejaVuSans-Bold-42"/>
     <use xlink:href="#DejaVuSans-Bold-65" transform="translate(76.220703 0)"/>
     <use xlink:href="#DejaVuSans-Bold-6e" transform="translate(144.042969 0)"/>
     <use xlink:href="#DejaVuSans-Bold-63" transform="translate(215.234375 0)"/>
     <use xlink:href="#DejaVuSans-Bold-68" transform="translate(274.511719 0)"/>
     <use xlink:href="#DejaVuSans-Bold-6d" transform="translate(345.703125 0)"/>
     <use xlink:href="#DejaVuSans-Bold-61" transform="translate(449.902344 0)"/>
     <use xlink:href="#DejaVuSans-Bold-72" transform="translate(517.382812 0)"/>
     <use xlink:href="#DejaVuSans-Bold-6b" transform="translate(566.699219 0)"/>
    </g>
    <!-- (SPY, DXY) -->
    <g style="fill: #1565c0" transform="translate(62.244592 392.299485) scale(0.12 -0.12)">
     <defs>
      <path id="DejaVuSans-Bold-50" d="M 588 4666 
L 2584 4666 
Q 3475 4666 3951 4270 
Q 4428 3875 4428 3144 
Q 4428 2409 3951 2014 
Q 3475 1619 2584 1619 
L 1791 1619 
L 1791 0 
L 588 0 
L 588 4666 
z
M 1791 3794 
L 1791 2491 
L 2456 2491 
Q 2806 2491 2997 2661 
Q 3188 2831 3188 3144 
Q 3188 3456 2997 3625 
Q 2806 3794 2456 3794 
L 1791 3794 
z
" transform="scale(0.015625)"/>
      <path id="DejaVuSans-Bold-59" d="M -63 4666 
L 1253 4666 
L 2316 3003 
L 3378 4666 
L 4697 4666 
L 2919 1966 
L 2919 0 
L 1716 0 
L 1716 1966 
L -63 4666 
z
" transform="scale(0.015625)"/>
     </defs>
     <use xlink:href="#DejaVuSans-Bold-28"/>
     <use xlink:href="#DejaVuSans-Bold-53" transform="translate(45.703125 0)"/>
     <use xlink:href="#DejaVuSans-Bold-50" transform="translate(117.724609 0)"/>
     <use xlink:href="#DejaVuSans-Bold-59" transform="translate(191.015625 0)"/>
     <use xlink:href="#DejaVuSans-Bold-2c" transform="translate(246.927734 0)"/>
     <use xlink:href="#DejaVuSans-Bold-20" transform="translate(284.916016 0)"/>
     <use xlink:href="#DejaVuSans-Bold-44" transform="translate(319.730469 0)"/>
     <use xlink:href="#DejaVuSans-Bold-58" transform="translate(402.738281 0)"/>
     <use xlink:href="#DejaVuSans-Bold-59" transform="translate(479.837891 0)"/>
     <use xlink:href="#DejaVuSans-Bold-29" transform="translate(552.25 0)"/>
    </g>
   </g>
   <g id="text_5">
    <!-- Stage 2: Features (37) -->
    <g style="fill: #2e7d32" transform="translate(191.467028 81.714811) scale(0.15 -0.15)">
     <defs>
      <path id="DejaVuSans-Bold-32" d="M 1844 884 
L 3897 884 
L 3897 0 
L 506 0 
L 506 884 
L 2209 2388 
Q 2438 2594 2547 2791 
Q 2656 2988 2656 3200 
Q 2656 3528 2436 3728 
Q 2216 3928 1850 3928 
Q 1569 3928 1234 3808 
Q 900 3688 519 3450 
L 519 4475 
Q 925 4609 1322 4679 
Q 1719 4750 2100 4750 
Q 2938 4750 3402 4381 
Q 3866 4013 3866 3353 
Q 3866 2972 3669 2642 
Q 3472 2313 2841 1759 
L 1844 884 
z
" transform="scale(0.015625)"/>
      <path id="DejaVuSans-Bold-46" d="M 588 4666 
L 3834 4666 
L 3834 3756 
L 1791 3756 
L 1791 2888 
L 3713 2888 
L 3713 1978 
L 1791 1978 
L 1791 0 
L 588 0 
L 588 4666 
z
" transform="scale(0.015625)"/>
      <path id="DejaVuSans-Bold-75" d="M 500 1363 
L 500 3500 
L 1625 3500 
L 1625 3150 
Q 1625 2866 1622 2436 
Q 1619 2006 1619 1863 
Q 1619 1441 1641 1255 
Q 1663 1069 1716 984 
Q 1784 875 1895 815 
Q 2006 756 2150 756 
Q 2500 756 2700 1025 
Q 2900 1294 2900 1772 
L 2900 3500 
L 4019 3500 
L 4019 0 
L 2900 0 
L 2900 506 
Q 2647 200 2364 54 
Q 2081 -91 1741 -91 
Q 1134 -91 817 281 
Q 500 653 500 1363 
z
" transform="scale(0.015625)"/>
      <path id="DejaVuSans-Bold-37" d="M 428 4666 
L 3944 4666 
L 3944 3988 
L 2125 0 
L 953 0 
L 2675 3781 
L 428 3781 
L 428 4666 
z
" transform="scale(0.015625)"/>
     </defs>
     <use xlink:href="#DejaVuSans-Bold-53"/>
     <use xlink:href="#DejaVuSans-Bold-74" transform="translate(72.021484 0)"/>
     <use xlink:href="#DejaVuSans-Bold-61" transform="translate(119.824219 0)"/>
     <use xlink:href="#DejaVuSans-Bold-67" transform="translate(187.304688 0)"/>
     <use xlink:href="#DejaVuSans-Bold-65" transform="translate(258.886719 0)"/>
     <use xlink:href="#DejaVuSans-Bold-20" transform="translate(326.708984 0)"/>
     <use xlink:href="#DejaVuSans-Bold-32" transform="translate(361.523438 0)"/>
     <use xlink:href="#DejaVuSans-Bold-3a" transform="translate(431.103516 0)"/>
     <use xlink:href="#DejaVuSans-Bold-20" transform="translate(471.09375 0)"/>
     <use xlink:href="#DejaVuSans-Bold-46" transform="translate(505.908203 0)"/>
     <use xlink:href="#DejaVuSans-Bold-65" transform="translate(570.21875 0)"/>
     <use xlink:href="#DejaVuSans-Bold-61" transform="translate(638.041016 0)"/>
     <use xlink:href="#DejaVuSans-Bold-74" transform="translate(705.521484 0)"/>
     <use xlink:href="#DejaVuSans-Bold-75" transform="translate(753.324219 0)"/>
     <use xlink:href="#DejaVuSans-Bold-72" transform="translate(824.515625 0)"/>
     <use xlink:href="#DejaVuSans-Bold-65" transform="translate(873.832031 0)"/>
     <use xlink:href="#DejaVuSans-Bold-73" transform="translate(941.654297 0)"/>
     <use xlink:href="#DejaVuSans-Bold-20" transform="translate(1001.175781 0)"/>
     <use xlink:href="#DejaVuSans-Bold-28" transform="translate(1035.990234 0)"/>
     <use xlink:href="#DejaVuSans-Bold-33" transform="translate(1081.693359 0)"/>
     <use xlink:href="#DejaVuSans-Bold-37" transform="translate(1151.273438 0)"/>
     <use xlink:href="#DejaVuSans-Bold-29" transform="translate(1220.853516 0)"/>
    </g>
   </g>
   <g id="text_6">
    <!-- Base (14) -->
    <g style="fill: #2c5282" transform="translate(259.635778 153.270016) scale(0.1 -0.1)">
     <defs>
      <path id="DejaVuSans-Bold-34" d="M 2356 3675 
L 1038 1722 
L 2356 1722 
L 2356 3675 
z
M 2156 4666 
L 3494 4666 
L 3494 1722 
L 4159 1722 
L 4159 850 
L 3494 850 
L 3494 0 
L 2356 0 
L 2356 850 
L 288 850 
L 288 1881 
L 2156 4666 
z
" transform="scale(0.015625)"/>
     </defs>
     <use xlink:href="#DejaVuSans-Bold-42"/>
     <use xlink:href="#DejaVuSans-Bold-61" transform="translate(76.220703 0)"/>
     <use xlink:href="#DejaVuSans-Bold-73" transform="translate(143.701172 0)"/>
     <use xlink:href="#DejaVuSans-Bold-65" transform="translate(203.222656 0)"/>
     <use xlink:href="#DejaVuSans-Bold-20" transform="translate(271.044922 0)"/>
     <use xlink:href="#DejaVuSans-Bold-28" transform="translate(305.859375 0)"/>
     <use xlink:href="#DejaVuSans-Bold-31" transform="translate(351.5625 0)"/>
     <use xlink:href="#DejaVuSans-Bold-34" transform="translate(421.142578 0)"/>
     <use xlink:href="#DejaVuSans-Bold-29" transform="translate(490.722656 0)"/>
    </g>
    <!-- HAR + GARCH -->
    <g style="fill: #2c5282" transform="translate(247.204528 164.467829) scale(0.1 -0.1)">
     <defs>
      <path id="DejaVuSans-Bold-52" d="M 2297 2597 
Q 2675 2597 2839 2737 
Q 3003 2878 3003 3200 
Q 3003 3519 2839 3656 
Q 2675 3794 2297 3794 
L 1791 3794 
L 1791 2597 
L 2297 2597 
z
M 1791 1766 
L 1791 0 
L 588 0 
L 588 4666 
L 2425 4666 
Q 3347 4666 3776 4356 
Q 4206 4047 4206 3378 
Q 4206 2916 3982 2619 
Q 3759 2322 3309 2181 
Q 3556 2125 3751 1926 
Q 3947 1728 4147 1325 
L 4800 0 
L 3519 0 
L 2950 1159 
Q 2778 1509 2601 1637 
Q 2425 1766 2131 1766 
L 1791 1766 
z
" transform="scale(0.015625)"/>
      <path id="DejaVuSans-Bold-2b" d="M 3053 4013 
L 3053 2375 
L 4684 2375 
L 4684 1638 
L 3053 1638 
L 3053 0 
L 2309 0 
L 2309 1638 
L 678 1638 
L 678 2375 
L 2309 2375 
L 2309 4013 
L 3053 4013 
z
" transform="scale(0.015625)"/>
      <path id="DejaVuSans-Bold-47" d="M 4781 347 
Q 4331 128 3847 18 
Q 3363 -91 2847 -91 
Q 1681 -91 1000 561 
Q 319 1213 319 2328 
Q 319 3456 1012 4103 
Q 1706 4750 2913 4750 
Q 3378 4750 3804 4662 
Q 4231 4575 4609 4403 
L 4609 3438 
Q 4219 3659 3833 3768 
Q 3447 3878 3059 3878 
Q 2341 3878 1952 3476 
Q 1563 3075 1563 2328 
Q 1563 1588 1938 1184 
Q 2313 781 3003 781 
Q 3191 781 3352 804 
Q 3513 828 3641 878 
L 3641 1784 
L 2906 1784 
L 2906 2591 
L 4781 2591 
L 4781 347 
z
" transform="scale(0.015625)"/>
     </defs>
     <use xlink:href="#DejaVuSans-Bold-48"/>
     <use xlink:href="#DejaVuSans-Bold-41" transform="translate(83.691406 0)"/>
     <use xlink:href="#DejaVuSans-Bold-52" transform="translate(161.083984 0)"/>
     <use xlink:href="#DejaVuSans-Bold-20" transform="translate(238.085938 0)"/>
     <use xlink:href="#DejaVuSans-Bold-2b" transform="translate(272.900391 0)"/>
     <use xlink:href="#DejaVuSans-Bold-20" transform="translate(356.689453 0)"/>
     <use xlink:href="#DejaVuSans-Bold-47" transform="translate(391.503906 0)"/>
     <use xlink:href="#DejaVuSans-Bold-41" transform="translate(473.583984 0)"/>
     <use xlink:href="#DejaVuSans-Bold-52" transform="translate(550.976562 0)"/>
     <use xlink:href="#DejaVuSans-Bold-43" transform="translate(627.978516 0)"/>
     <use xlink:href="#DejaVuSans-Bold-48" transform="translate(701.367188 0)"/>
    </g>
   </g>
   <g id="text_7">
    <!-- HF Proxy (7) -->
    <g style="fill: #276749" transform="translate(251.276403 248.411686) scale(0.1 -0.1)">
     <defs>
      <path id="DejaVuSans-Bold-6f" d="M 2203 2784 
Q 1831 2784 1636 2517 
Q 1441 2250 1441 1747 
Q 1441 1244 1636 976 
Q 1831 709 2203 709 
Q 2569 709 2762 976 
Q 2956 1244 2956 1747 
Q 2956 2250 2762 2517 
Q 2569 2784 2203 2784 
z
M 2203 3584 
Q 3106 3584 3614 3096 
Q 4122 2609 4122 1747 
Q 4122 884 3614 396 
Q 3106 -91 2203 -91 
Q 1297 -91 786 396 
Q 275 884 275 1747 
Q 275 2609 786 3096 
Q 1297 3584 2203 3584 
z
" transform="scale(0.015625)"/>
      <path id="DejaVuSans-Bold-78" d="M 1422 1791 
L 159 3500 
L 1344 3500 
L 2059 2463 
L 2784 3500 
L 3969 3500 
L 2706 1797 
L 4031 0 
L 2847 0 
L 2059 1106 
L 1281 0 
L 97 0 
L 1422 1791 
z
" transform="scale(0.015625)"/>
     </defs>
     <use xlink:href="#DejaVuSans-Bold-48"/>
     <use xlink:href="#DejaVuSans-Bold-46" transform="translate(83.691406 0)"/>
     <use xlink:href="#DejaVuSans-Bold-20" transform="translate(152.001953 0)"/>
     <use xlink:href="#DejaVuSans-Bold-50" transform="translate(186.816406 0)"/>
     <use xlink:href="#DejaVuSans-Bold-72" transform="translate(260.107422 0)"/>
     <use xlink:href="#DejaVuSans-Bold-6f" transform="translate(309.423828 0)"/>
     <use xlink:href="#DejaVuSans-Bold-78" transform="translate(378.125 0)"/>
     <use xlink:href="#DejaVuSans-Bold-79" transform="translate(442.626953 0)"/>
     <use xlink:href="#DejaVuSans-Bold-20" transform="translate(507.8125 0)"/>
     <use xlink:href="#DejaVuSans-Bold-28" transform="translate(542.626953 0)"/>
     <use xlink:href="#DejaVuSans-Bold-37" transform="translate(588.330078 0)"/>
     <use xlink:href="#DejaVuSans-Bold-29" transform="translate(657.910156 0)"/>
    </g>
    <!-- Range Estimators -->
    <g style="fill: #276749" transform="translate(236.616247 259.687623) scale(0.1 -0.1)">
     <defs>
      <path id="DejaVuSans-Bold-45" d="M 588 4666 
L 3834 4666 
L 3834 3756 
L 1791 3756 
L 1791 2888 
L 3713 2888 
L 3713 1978 
L 1791 1978 
L 1791 909 
L 3903 909 
L 3903 0 
L 588 0 
L 588 4666 
z
" transform="scale(0.015625)"/>
     </defs>
     <use xlink:href="#DejaVuSans-Bold-52"/>
     <use xlink:href="#DejaVuSans-Bold-61" transform="translate(77.001953 0)"/>
     <use xlink:href="#DejaVuSans-Bold-6e" transform="translate(144.482422 0)"/>
     <use xlink:href="#DejaVuSans-Bold-67" transform="translate(215.673828 0)"/>
     <use xlink:href="#DejaVuSans-Bold-65" transform="translate(287.255859 0)"/>
     <use xlink:href="#DejaVuSans-Bold-20" transform="translate(355.078125 0)"/>
     <use xlink:href="#DejaVuSans-Bold-45" transform="translate(389.892578 0)"/>
     <use xlink:href="#DejaVuSans-Bold-73" transform="translate(458.203125 0)"/>
     <use xlink:href="#DejaVuSans-Bold-74" transform="translate(517.724609 0)"/>
     <use xlink:href="#DejaVuSans-Bold-69" transform="translate(565.527344 0)"/>
     <use xlink:href="#DejaVuSans-Bold-6d" transform="translate(599.804688 0)"/>
     <use xlink:href="#DejaVuSans-Bold-61" transform="translate(704.003906 0)"/>
     <use xlink:href="#DejaVuSans-Bold-74" transform="translate(771.484375 0)"/>
     <use xlink:href="#DejaVuSans-Bold-6f" transform="translate(819.287109 0)"/>
     <use xlink:href="#DejaVuSans-Bold-72" transform="translate(887.988281 0)"/>
     <use xlink:href="#DejaVuSans-Bold-73" transform="translate(937.304688 0)"/>
    </g>
   </g>
   <g id="text_8">
    <!-- IV Surface (10) -->
    <g style="fill: #2b6cb0" transform="translate(244.18734 337.768964) scale(0.1 -0.1)">
     <use xlink:href="#DejaVuSans-Bold-49"/>
     <use xlink:href="#DejaVuSans-Bold-56" transform="translate(37.207031 0)"/>
     <use xlink:href="#DejaVuSans-Bold-20" transform="translate(114.599609 0)"/>
     <use xlink:href="#DejaVuSans-Bold-53" transform="translate(149.414062 0)"/>
     <use xlink:href="#DejaVuSans-Bold-75" transform="translate(221.435547 0)"/>
     <use xlink:href="#DejaVuSans-Bold-72" transform="translate(292.626953 0)"/>
     <use xlink:href="#DejaVuSans-Bold-66" transform="translate(341.943359 0)"/>
     <use xlink:href="#DejaVuSans-Bold-61" transform="translate(385.449219 0)"/>
     <use xlink:href="#DejaVuSans-Bold-63" transform="translate(452.929688 0)"/>
     <use xlink:href="#DejaVuSans-Bold-65" transform="translate(512.207031 0)"/>
     <use xlink:href="#DejaVuSans-Bold-20" transform="translate(580.029297 0)"/>
     <use xlink:href="#DejaVuSans-Bold-28" transform="translate(614.84375 0)"/>
     <use xlink:href="#DejaVuSans-Bold-31" transform="translate(660.546875 0)"/>
     <use xlink:href="#DejaVuSans-Bold-30" transform="translate(730.126953 0)"/>
     <use xlink:href="#DejaVuSans-Bold-29" transform="translate(799.707031 0)"/>
    </g>
    <!-- Implied Vol -->
    <g style="fill: #2b6cb0" transform="translate(254.92484 348.966776) scale(0.1 -0.1)">
     <defs>
      <path id="DejaVuSans-Bold-70" d="M 1656 506 
L 1656 -1331 
L 538 -1331 
L 538 3500 
L 1656 3500 
L 1656 2988 
Q 1888 3294 2169 3439 
Q 2450 3584 2816 3584 
Q 3463 3584 3878 3070 
Q 4294 2556 4294 1747 
Q 4294 938 3878 423 
Q 3463 -91 2816 -91 
Q 2450 -91 2169 54 
Q 1888 200 1656 506 
z
M 2400 2772 
Q 2041 2772 1848 2508 
Q 1656 2244 1656 1747 
Q 1656 1250 1848 986 
Q 2041 722 2400 722 
Q 2759 722 2948 984 
Q 3138 1247 3138 1747 
Q 3138 2247 2948 2509 
Q 2759 2772 2400 2772 
z
" transform="scale(0.015625)"/>
     </defs>
     <use xlink:href="#DejaVuSans-Bold-49"/>
     <use xlink:href="#DejaVuSans-Bold-6d" transform="translate(37.207031 0)"/>
     <use xlink:href="#DejaVuSans-Bold-70" transform="translate(141.40625 0)"/>
     <use xlink:href="#DejaVuSans-Bold-6c" transform="translate(212.988281 0)"/>
     <use xlink:href="#DejaVuSans-Bold-69" transform="translate(247.265625 0)"/>
     <use xlink:href="#DejaVuSans-Bold-65" transform="translate(281.542969 0)"/>
     <use xlink:href="#DejaVuSans-Bold-64" transform="translate(349.365234 0)"/>
     <use xlink:href="#DejaVuSans-Bold-20" transform="translate(420.947266 0)"/>
     <use xlink:href="#DejaVuSans-Bold-56" transform="translate(455.761719 0)"/>
     <use xlink:href="#DejaVuSans-Bold-6f" transform="translate(527.654297 0)"/>
     <use xlink:href="#DejaVuSans-Bold-6c" transform="translate(596.355469 0)"/>
    </g>
   </g>
   <g id="text_9">
    <!-- Alt Data (6) -->
    <g style="fill: #c53030" transform="translate(253.663903 415.13949) scale(0.1 -0.1)">
     <defs>
      <path id="DejaVuSans-Bold-36" d="M 2316 2303 
Q 2000 2303 1842 2098 
Q 1684 1894 1684 1484 
Q 1684 1075 1842 870 
Q 2000 666 2316 666 
Q 2634 666 2792 870 
Q 2950 1075 2950 1484 
Q 2950 1894 2792 2098 
Q 2634 2303 2316 2303 
z
M 3803 4544 
L 3803 3681 
Q 3506 3822 3243 3889 
Q 2981 3956 2731 3956 
Q 2194 3956 1894 3657 
Q 1594 3359 1544 2772 
Q 1750 2925 1990 3001 
Q 2231 3078 2516 3078 
Q 3231 3078 3670 2659 
Q 4109 2241 4109 1563 
Q 4109 813 3618 361 
Q 3128 -91 2303 -91 
Q 1394 -91 895 523 
Q 397 1138 397 2266 
Q 397 3422 980 4083 
Q 1563 4744 2578 4744 
Q 2900 4744 3203 4694 
Q 3506 4644 3803 4544 
z
" transform="scale(0.015625)"/>
     </defs>
     <use xlink:href="#DejaVuSans-Bold-41"/>
     <use xlink:href="#DejaVuSans-Bold-6c" transform="translate(77.392578 0)"/>
     <use xlink:href="#DejaVuSans-Bold-74" transform="translate(111.669922 0)"/>
     <use xlink:href="#DejaVuSans-Bold-20" transform="translate(159.472656 0)"/>
     <use xlink:href="#DejaVuSans-Bold-44" transform="translate(194.287109 0)"/>
     <use xlink:href="#DejaVuSans-Bold-61" transform="translate(277.294922 0)"/>
     <use xlink:href="#DejaVuSans-Bold-74" transform="translate(344.775391 0)"/>
     <use xlink:href="#DejaVuSans-Bold-61" transform="translate(392.578125 0)"/>
     <use xlink:href="#DejaVuSans-Bold-20" transform="translate(460.058594 0)"/>
     <use xlink:href="#DejaVuSans-Bold-28" transform="translate(494.873047 0)"/>
     <use xlink:href="#DejaVuSans-Bold-36" transform="translate(540.576172 0)"/>
     <use xlink:href="#DejaVuSans-Bold-29" transform="translate(610.15625 0)"/>
    </g>
    <!-- Volume Based -->
    <g style="fill: #c53030" transform="translate(246.680309 426.337303) scale(0.1 -0.1)">
     <use xlink:href="#DejaVuSans-Bold-56"/>
     <use xlink:href="#DejaVuSans-Bold-6f" transform="translate(71.892578 0)"/>
     <use xlink:href="#DejaVuSans-Bold-6c" transform="translate(140.59375 0)"/>
     <use xlink:href="#DejaVuSans-Bold-75" transform="translate(174.871094 0)"/>
     <use xlink:href="#DejaVuSans-Bold-6d" transform="translate(246.0625 0)"/>
     <use xlink:href="#DejaVuSans-Bold-65" transform="translate(350.261719 0)"/>
     <use xlink:href="#DejaVuSans-Bold-20" transform="translate(418.083984 0)"/>
     <use xlink:href="#DejaVuSans-Bold-42" transform="translate(452.898438 0)"/>
     <use xlink:href="#DejaVuSans-Bold-61" transform="translate(529.119141 0)"/>
     <use xlink:href="#DejaVuSans-Bold-73" transform="translate(596.599609 0)"/>
     <use xlink:href="#DejaVuSans-Bold-65" transform="translate(656.121094 0)"/>
     <use xlink:href="#DejaVuSans-Bold-64" transform="translate(723.943359 0)"/>
    </g>
   </g>
   <g id="text_10">
    <!-- Stage 3: Models -->
    <g style="fill: #e65100" transform="translate(400.250118 81.714811) scale(0.15 -0.15)">
     <use xlink:href="#DejaVuSans-Bold-53"/>
     <use xlink:href="#DejaVuSans-Bold-74" transform="translate(72.021484 0)"/>
     <use xlink:href="#DejaVuSans-Bold-61" transform="translate(119.824219 0)"/>
     <use xlink:href="#DejaVuSans-Bold-67" transform="translate(187.304688 0)"/>
     <use xlink:href="#DejaVuSans-Bold-65" transform="translate(258.886719 0)"/>
     <use xlink:href="#DejaVuSans-Bold-20" transform="translate(326.708984 0)"/>
     <use xlink:href="#DejaVuSans-Bold-33" transform="translate(361.523438 0)"/>
     <use xlink:href="#DejaVuSans-Bold-3a" transform="translate(431.103516 0)"/>
     <use xlink:href="#DejaVuSans-Bold-20" transform="translate(471.09375 0)"/>
     <use xlink:href="#DejaVuSans-Bold-4d" transform="translate(505.908203 0)"/>
     <use xlink:href="#DejaVuSans-Bold-6f" transform="translate(605.419922 0)"/>
     <use xlink:href="#DejaVuSans-Bold-64" transform="translate(674.121094 0)"/>
     <use xlink:href="#DejaVuSans-Bold-65" transform="translate(745.703125 0)"/>
     <use xlink:href="#DejaVuSans-Bold-6c" transform="translate(813.525391 0)"/>
     <use xlink:href="#DejaVuSans-Bold-73" transform="translate(847.802734 0)"/>
    </g>
   </g>
   <g id="text_11">
    <!-- Equity -->
    <g style="fill: #e53e3e" transform="translate(446.797931 152.60836) scale(0.12 -0.12)">
     <defs>
      <path id="DejaVuSans-Bold-71" d="M 2181 2772 
Q 1825 2772 1636 2509 
Q 1447 2247 1447 1747 
Q 1447 1247 1636 984 
Q 1825 722 2181 722 
Q 2541 722 2730 984 
Q 2919 1247 2919 1747 
Q 2919 2247 2730 2509 
Q 2541 2772 2181 2772 
z
M 2919 506 
Q 2688 197 2409 53 
Q 2131 -91 1766 -91 
Q 1119 -91 703 423 
Q 288 938 288 1747 
Q 288 2556 703 3067 
Q 1119 3578 1766 3578 
Q 2131 3578 2409 3434 
Q 2688 3291 2919 2981 
L 2919 3500 
L 4044 3500 
L 4044 -1331 
L 2919 -1331 
L 2919 506 
z
" transform="scale(0.015625)"/>
     </defs>
     <use xlink:href="#DejaVuSans-Bold-45"/>
     <use xlink:href="#DejaVuSans-Bold-71" transform="translate(68.310547 0)"/>
     <use xlink:href="#DejaVuSans-Bold-75" transform="translate(139.892578 0)"/>
     <use xlink:href="#DejaVuSans-Bold-69" transform="translate(211.083984 0)"/>
     <use xlink:href="#DejaVuSans-Bold-74" transform="translate(245.361328 0)"/>
     <use xlink:href="#DejaVuSans-Bold-79" transform="translate(293.164062 0)"/>
    </g>
    <!-- Ridge -->
    <g style="fill: #e53e3e" transform="translate(448.962618 166.139485) scale(0.12 -0.12)">
     <use xlink:href="#DejaVuSans-Bold-52"/>
     <use xlink:href="#DejaVuSans-Bold-69" transform="translate(77.001953 0)"/>
     <use xlink:href="#DejaVuSans-Bold-64" transform="translate(111.279297 0)"/>
     <use xlink:href="#DejaVuSans-Bold-67" transform="translate(182.861328 0)"/>
     <use xlink:href="#DejaVuSans-Bold-65" transform="translate(254.443359 0)"/>
    </g>
   </g>
   <g id="text_12">
    <!-- Bond -->
    <g style="fill: #3182ce" transform="translate(451.037306 241.928919) scale(0.12 -0.12)">
     <use xlink:href="#DejaVuSans-Bold-42"/>
     <use xlink:href="#DejaVuSans-Bold-6f" transform="translate(76.220703 0)"/>
     <use xlink:href="#DejaVuSans-Bold-6e" transform="translate(144.921875 0)"/>
     <use xlink:href="#DejaVuSans-Bold-64" transform="translate(216.113281 0)"/>
    </g>
    <!-- Ridge -->
    <g style="fill: #3182ce" transform="translate(448.962618 255.366294) scale(0.12 -0.12)">
     <use xlink:href="#DejaVuSans-Bold-52"/>
     <use xlink:href="#DejaVuSans-Bold-69" transform="translate(77.001953 0)"/>
     <use xlink:href="#DejaVuSans-Bold-64" transform="translate(111.279297 0)"/>
     <use xlink:href="#DejaVuSans-Bold-67" transform="translate(182.861328 0)"/>
     <use xlink:href="#DejaVuSans-Bold-65" transform="translate(254.443359 0)"/>
    </g>
   </g>
   <g id="text_13">
    <!-- Commodity -->
    <g style="fill: #d69e2e" transform="translate(430.015743 331.155729) scale(0.12 -0.12)">
     <use xlink:href="#DejaVuSans-Bold-43"/>
     <use xlink:href="#DejaVuSans-Bold-6f" transform="translate(73.388672 0)"/>
     <use xlink:href="#DejaVuSans-Bold-6d" transform="translate(142.089844 0)"/>
     <use xlink:href="#DejaVuSans-Bold-6d" transform="translate(246.289062 0)"/>
     <use xlink:href="#DejaVuSans-Bold-6f" transform="translate(350.488281 0)"/>
     <use xlink:href="#DejaVuSans-Bold-64" transform="translate(419.189453 0)"/>
     <use xlink:href="#DejaVuSans-Bold-69" transform="translate(490.771484 0)"/>
     <use xlink:href="#DejaVuSans-Bold-74" transform="translate(525.048828 0)"/>
     <use xlink:href="#DejaVuSans-Bold-79" transform="translate(572.851562 0)"/>
    </g>
    <!-- Ridge -->
    <g style="fill: #d69e2e" transform="translate(448.962618 344.686854) scale(0.12 -0.12)">
     <use xlink:href="#DejaVuSans-Bold-52"/>
     <use xlink:href="#DejaVuSans-Bold-69" transform="translate(77.001953 0)"/>
     <use xlink:href="#DejaVuSans-Bold-64" transform="translate(111.279297 0)"/>
     <use xlink:href="#DejaVuSans-Bold-67" transform="translate(182.861328 0)"/>
     <use xlink:href="#DejaVuSans-Bold-65" transform="translate(254.443359 0)"/>
    </g>
   </g>
   <g id="text_14">
    <!-- XGBoost -->
    <g style="fill: #e65100" transform="translate(439.491993 421.290271) scale(0.12 -0.12)">
     <use xlink:href="#DejaVuSans-Bold-58"/>
     <use xlink:href="#DejaVuSans-Bold-47" transform="translate(77.099609 0)"/>
     <use xlink:href="#DejaVuSans-Bold-42" transform="translate(159.179688 0)"/>
     <use xlink:href="#DejaVuSans-Bold-6f" transform="translate(235.400391 0)"/>
     <use xlink:href="#DejaVuSans-Bold-6f" transform="translate(304.101562 0)"/>
     <use xlink:href="#DejaVuSans-Bold-73" transform="translate(372.802734 0)"/>
     <use xlink:href="#DejaVuSans-Bold-74" transform="translate(432.324219 0)"/>
    </g>
   </g>
   <g id="text_15">
    <!-- Stage 4: Ensemble -->
    <g style="fill: #c53030" transform="translate(555.872231 81.714811) scale(0.13 -0.13)">
     <defs>
      <path id="DejaVuSans-Bold-62" d="M 2400 722 
Q 2759 722 2948 984 
Q 3138 1247 3138 1747 
Q 3138 2247 2948 2509 
Q 2759 2772 2400 2772 
Q 2041 2772 1848 2508 
Q 1656 2244 1656 1747 
Q 1656 1250 1848 986 
Q 2041 722 2400 722 
z
M 1656 2988 
Q 1888 3294 2169 3439 
Q 2450 3584 2816 3584 
Q 3463 3584 3878 3070 
Q 4294 2556 4294 1747 
Q 4294 938 3878 423 
Q 3463 -91 2816 -91 
Q 2450 -91 2169 54 
Q 1888 200 1656 506 
L 1656 0 
L 538 0 
L 538 4863 
L 1656 4863 
L 1656 2988 
z
" transform="scale(0.015625)"/>
     </defs>
     <use xlink:href="#DejaVuSans-Bold-53"/>
     <use xlink:href="#DejaVuSans-Bold-74" transform="translate(72.021484 0)"/>
     <use xlink:href="#DejaVuSans-Bold-61" transform="translate(119.824219 0)"/>
     <use xlink:href="#DejaVuSans-Bold-67" transform="translate(187.304688 0)"/>
     <use xlink:href="#DejaVuSans-Bold-65" transform="translate(258.886719 0)"/>
     <use xlink:href="#DejaVuSans-Bold-20" transform="translate(326.708984 0)"/>
     <use xlink:href="#DejaVuSans-Bold-34" transform="translate(361.523438 0)"/>
     <use xlink:href="#DejaVuSans-Bold-3a" transform="translate(431.103516 0)"/>
     <use xlink:href="#DejaVuSans-Bold-20" transform="translate(471.09375 0)"/>
     <use xlink:href="#DejaVuSans-Bold-45" transform="translate(505.908203 0)"/>
     <use xlink:href="#DejaVuSans-Bold-6e" transform="translate(574.21875 0)"/>
     <use xlink:href="#DejaVuSans-Bold-73" transform="translate(645.410156 0)"/>
     <use xlink:href="#DejaVuSans-Bold-65" transform="translate(704.931641 0)"/>
     <use xlink:href="#DejaVuSans-Bold-6d" transform="translate(772.753906 0)"/>
     <use xlink:href="#DejaVuSans-Bold-62" transform="translate(876.953125 0)"/>
     <use xlink:href="#DejaVuSans-Bold-6c" transform="translate(948.535156 0)"/>
     <use xlink:href="#DejaVuSans-Bold-65" transform="translate(982.8125 0)"/>
    </g>
   </g>
   <g id="text_16">
    <!-- Ridge -->
    <g style="fill: #7b1fa2" transform="translate(603.21559 129.547671) scale(0.13 -0.13)">
     <use xlink:href="#DejaVuSans-Bold-52"/>
     <use xlink:href="#DejaVuSans-Bold-69" transform="translate(77.001953 0)"/>
     <use xlink:href="#DejaVuSans-Bold-64" transform="translate(111.279297 0)"/>
     <use xlink:href="#DejaVuSans-Bold-67" transform="translate(182.861328 0)"/>
     <use xlink:href="#DejaVuSans-Bold-65" transform="translate(254.443359 0)"/>
    </g>
    <!-- Pool -->
    <g style="fill: #7b1fa2" transform="translate(608.238872 144.20639) scale(0.13 -0.13)">
     <use xlink:href="#DejaVuSans-Bold-50"/>
     <use xlink:href="#DejaVuSans-Bold-6f" transform="translate(73.291016 0)"/>
     <use xlink:href="#DejaVuSans-Bold-6f" transform="translate(141.992188 0)"/>
     <use xlink:href="#DejaVuSans-Bold-6c" transform="translate(210.693359 0)"/>
    </g>
   </g>
   <g id="text_17">
    <!-- Weight: 70% -->
    <g style="fill: #718096" transform="translate(589.17684 197.7706) scale(0.11 -0.11)">
     <defs>
      <path id="DejaVuSans-57" d="M 213 4666 
L 850 4666 
L 1831 722 
L 2809 4666 
L 3519 4666 
L 4500 722 
L 5478 4666 
L 6119 4666 
L 4947 0 
L 4153 0 
L 3169 4050 
L 2175 0 
L 1381 0 
L 213 4666 
z
" transform="scale(0.015625)"/>
      <path id="DejaVuSans-65" d="M 3597 1894 
L 3597 1613 
L 953 1613 
Q 991 1019 1311 708 
Q 1631 397 2203 397 
Q 2534 397 2845 478 
Q 3156 559 3463 722 
L 3463 178 
Q 3153 47 2828 -22 
Q 2503 -91 2169 -91 
Q 1331 -91 842 396 
Q 353 884 353 1716 
Q 353 2575 817 3079 
Q 1281 3584 2069 3584 
Q 2775 3584 3186 3129 
Q 3597 2675 3597 1894 
z
M 3022 2063 
Q 3016 2534 2758 2815 
Q 2500 3097 2075 3097 
Q 1594 3097 1305 2825 
Q 1016 2553 972 2059 
L 3022 2063 
z
" transform="scale(0.015625)"/>
      <path id="DejaVuSans-69" d="M 603 3500 
L 1178 3500 
L 1178 0 
L 603 0 
L 603 3500 
z
M 603 4863 
L 1178 4863 
L 1178 4134 
L 603 4134 
L 603 4863 
z
" transform="scale(0.015625)"/>
      <path id="DejaVuSans-67" d="M 2906 1791 
Q 2906 2416 2648 2759 
Q 2391 3103 1925 3103 
Q 1463 3103 1205 2759 
Q 947 2416 947 1791 
Q 947 1169 1205 825 
Q 1463 481 1925 481 
Q 2391 481 2648 825 
Q 2906 1169 2906 1791 
z
M 3481 434 
Q 3481 -459 3084 -895 
Q 2688 -1331 1869 -1331 
Q 1566 -1331 1297 -1286 
Q 1028 -1241 775 -1147 
L 775 -588 
Q 1028 -725 1275 -790 
Q 1522 -856 1778 -856 
Q 2344 -856 2625 -561 
Q 2906 -266 2906 331 
L 2906 616 
Q 2728 306 2450 153 
Q 2172 0 1784 0 
Q 1141 0 747 490 
Q 353 981 353 1791 
Q 353 2603 747 3093 
Q 1141 3584 1784 3584 
Q 2172 3584 2450 3431 
Q 2728 3278 2906 2969 
L 2906 3500 
L 3481 3500 
L 3481 434 
z
" transform="scale(0.015625)"/>
      <path id="DejaVuSans-68" d="M 3513 2113 
L 3513 0 
L 2938 0 
L 2938 2094 
Q 2938 2591 2744 2837 
Q 2550 3084 2163 3084 
Q 1697 3084 1428 2787 
Q 1159 2491 1159 1978 
L 1159 0 
L 581 0 
L 581 4863 
L 1159 4863 
L 1159 2956 
Q 1366 3272 1645 3428 
Q 1925 3584 2291 3584 
Q 2894 3584 3203 3211 
Q 3513 2838 3513 2113 
z
" transform="scale(0.015625)"/>
      <path id="DejaVuSans-74" d="M 1172 4494 
L 1172 3500 
L 2356 3500 
L 2356 3053 
L 1172 3053 
L 1172 1153 
Q 1172 725 1289 603 
Q 1406 481 1766 481 
L 2356 481 
L 2356 0 
L 1766 0 
Q 1100 0 847 248 
Q 594 497 594 1153 
L 594 3053 
L 172 3053 
L 172 3500 
L 594 3500 
L 594 4494 
L 1172 4494 
z
" transform="scale(0.015625)"/>
      <path id="DejaVuSans-3a" d="M 750 794 
L 1409 794 
L 1409 0 
L 750 0 
L 750 794 
z
M 750 3309 
L 1409 3309 
L 1409 2516 
L 750 2516 
L 750 3309 
z
" transform="scale(0.015625)"/>
      <path id="DejaVuSans-20" transform="scale(0.015625)"/>
      <path id="DejaVuSans-37" d="M 525 4666 
L 3525 4666 
L 3525 4397 
L 1831 0 
L 1172 0 
L 2766 4134 
L 525 4134 
L 525 4666 
z
" transform="scale(0.015625)"/>
      <path id="DejaVuSans-30" d="M 2034 4250 
Q 1547 4250 1301 3770 
Q 1056 3291 1056 2328 
Q 1056 1369 1301 889 
Q 1547 409 2034 409 
Q 2525 409 2770 889 
Q 3016 1369 3016 2328 
Q 3016 3291 2770 3770 
Q 2525 4250 2034 4250 
z
M 2034 4750 
Q 2819 4750 3233 4129 
Q 3647 3509 3647 2328 
Q 3647 1150 3233 529 
Q 2819 -91 2034 -91 
Q 1250 -91 836 529 
Q 422 1150 422 2328 
Q 422 3509 836 4129 
Q 1250 4750 2034 4750 
z
" transform="scale(0.015625)"/>
      <path id="DejaVuSans-25" d="M 4653 2053 
Q 4381 2053 4226 1822 
Q 4072 1591 4072 1178 
Q 4072 772 4226 539 
Q 4381 306 4653 306 
Q 4919 306 5073 539 
Q 5228 772 5228 1178 
Q 5228 1588 5073 1820 
Q 4919 2053 4653 2053 
z
M 4653 2450 
Q 5147 2450 5437 2106 
Q 5728 1763 5728 1178 
Q 5728 594 5436 251 
Q 5144 -91 4653 -91 
Q 4153 -91 3862 251 
Q 3572 594 3572 1178 
Q 3572 1766 3864 2108 
Q 4156 2450 4653 2450 
z
M 1428 4353 
Q 1159 4353 1004 4120 
Q 850 3888 850 3481 
Q 850 3069 1003 2837 
Q 1156 2606 1428 2606 
Q 1700 2606 1854 2837 
Q 2009 3069 2009 3481 
Q 2009 3884 1853 4118 
Q 1697 4353 1428 4353 
z
M 4250 4750 
L 4750 4750 
L 1831 -91 
L 1331 -91 
L 4250 4750 
z
M 1428 4750 
Q 1922 4750 2215 4408 
Q 2509 4066 2509 3481 
Q 2509 2891 2217 2550 
Q 1925 2209 1428 2209 
Q 931 2209 642 2551 
Q 353 2894 353 3481 
Q 353 4063 643 4406 
Q 934 4750 1428 4750 
z
" transform="scale(0.015625)"/>
     </defs>
     <use xlink:href="#DejaVuSans-57"/>
     <use xlink:href="#DejaVuSans-65" transform="translate(93.001953 0)"/>
     <use xlink:href="#DejaVuSans-69" transform="translate(154.525391 0)"/>
     <use xlink:href="#DejaVuSans-67" transform="translate(182.308594 0)"/>
     <use xlink:href="#DejaVuSans-68" transform="translate(245.785156 0)"/>
     <use xlink:href="#DejaVuSans-74" transform="translate(309.164062 0)"/>
     <use xlink:href="#DejaVuSans-3a" transform="translate(348.373047 0)"/>
     <use xlink:href="#DejaVuSans-20" transform="translate(382.064453 0)"/>
     <use xlink:href="#DejaVuSans-37" transform="translate(413.851562 0)"/>
     <use xlink:href="#DejaVuSans-30" transform="translate(477.474609 0)"/>
     <use xlink:href="#DejaVuSans-25" transform="translate(541.097656 0)"/>
    </g>
   </g>
   <g id="text_18">
    <!-- XGBoost -->
    <g style="fill: #e65100" transform="translate(592.955747 254.632391) scale(0.13 -0.13)">
     <use xlink:href="#DejaVuSans-Bold-58"/>
     <use xlink:href="#DejaVuSans-Bold-47" transform="translate(77.099609 0)"/>
     <use xlink:href="#DejaVuSans-Bold-42" transform="translate(159.179688 0)"/>
     <use xlink:href="#DejaVuSans-Bold-6f" transform="translate(235.400391 0)"/>
     <use xlink:href="#DejaVuSans-Bold-6f" transform="translate(304.101562 0)"/>
     <use xlink:href="#DejaVuSans-Bold-73" transform="translate(372.802734 0)"/>
     <use xlink:href="#DejaVuSans-Bold-74" transform="translate(432.324219 0)"/>
    </g>
    <!-- Pred -->
    <g style="fill: #e65100" transform="translate(607.13184 269.189548) scale(0.13 -0.13)">
     <use xlink:href="#DejaVuSans-Bold-50"/>
     <use xlink:href="#DejaVuSans-Bold-72" transform="translate(73.291016 0)"/>
     <use xlink:href="#DejaVuSans-Bold-65" transform="translate(122.607422 0)"/>
     <use xlink:href="#DejaVuSans-Bold-64" transform="translate(190.429688 0)"/>
    </g>
   </g>
   <g id="text_19">
    <!-- Weight: 30% -->
    <g style="fill: #718096" transform="translate(589.17684 304.899021) scale(0.11 -0.11)">
     <defs>
      <path id="DejaVuSans-33" d="M 2597 2516 
Q 3050 2419 3304 2112 
Q 3559 1806 3559 1356 
Q 3559 666 3084 287 
Q 2609 -91 1734 -91 
Q 1441 -91 1130 -33 
Q 819 25 488 141 
L 488 750 
Q 750 597 1062 519 
Q 1375 441 1716 441 
Q 2309 441 2620 675 
Q 2931 909 2931 1356 
Q 2931 1769 2642 2001 
Q 2353 2234 1838 2234 
L 1294 2234 
L 1294 2753 
L 1863 2753 
Q 2328 2753 2575 2939 
Q 2822 3125 2822 3475 
Q 2822 3834 2567 4026 
Q 2313 4219 1838 4219 
Q 1578 4219 1281 4162 
Q 984 4106 628 3988 
L 628 4550 
Q 988 4650 1302 4700 
Q 1616 4750 1894 4750 
Q 2613 4750 3031 4423 
Q 3450 4097 3450 3541 
Q 3450 3153 3228 2886 
Q 3006 2619 2597 2516 
z
" transform="scale(0.015625)"/>
     </defs>
     <use xlink:href="#DejaVuSans-57"/>
     <use xlink:href="#DejaVuSans-65" transform="translate(93.001953 0)"/>
     <use xlink:href="#DejaVuSans-69" transform="translate(154.525391 0)"/>
     <use xlink:href="#DejaVuSans-67" transform="translate(182.308594 0)"/>
     <use xlink:href="#DejaVuSans-68" transform="translate(245.785156 0)"/>
     <use xlink:href="#DejaVuSans-74" transform="translate(309.164062 0)"/>
     <use xlink:href="#DejaVuSans-3a" transform="translate(348.373047 0)"/>
     <use xlink:href="#DejaVuSans-20" transform="translate(382.064453 0)"/>
     <use xlink:href="#DejaVuSans-33" transform="translate(413.851562 0)"/>
     <use xlink:href="#DejaVuSans-30" transform="translate(477.474609 0)"/>
     <use xlink:href="#DejaVuSans-25" transform="translate(541.097656 0)"/>
    </g>
   </g>
   <g id="text_20">
    <!-- R²=0.803 -->
    <g style="fill: #ffffff" transform="translate(577.2827 382.269548) scale(0.18 -0.18)">
     <defs>
      <path id="DejaVuSans-Bold-b2" d="M 1288 2613 
L 2444 2613 
L 2444 2088 
L 341 2088 
L 341 2566 
L 1319 3397 
Q 1509 3563 1590 3688 
Q 1672 3813 1672 3938 
Q 1672 4094 1558 4191 
Q 1444 4288 1259 4288 
Q 1066 4288 844 4217 
Q 622 4147 359 4000 
L 359 4581 
Q 631 4666 886 4708 
Q 1141 4750 1375 4750 
Q 1869 4750 2150 4548 
Q 2431 4347 2431 4000 
Q 2431 3775 2320 3586 
Q 2209 3397 1894 3128 
L 1288 2613 
z
" transform="scale(0.015625)"/>
      <path id="DejaVuSans-Bold-3d" d="M 678 3084 
L 4684 3084 
L 4684 2350 
L 678 2350 
L 678 3084 
z
M 678 1663 
L 4684 1663 
L 4684 922 
L 678 922 
L 678 1663 
z
" transform="scale(0.015625)"/>
      <path id="DejaVuSans-Bold-2e" d="M 653 1209 
L 1778 1209 
L 1778 0 
L 653 0 
L 653 1209 
z
" transform="scale(0.015625)"/>
      <path id="DejaVuSans-Bold-38" d="M 2228 2088 
Q 1891 2088 1709 1903 
Q 1528 1719 1528 1375 
Q 1528 1031 1709 848 
Q 1891 666 2228 666 
Q 2563 666 2741 848 
Q 2919 1031 2919 1375 
Q 2919 1722 2741 1905 
Q 2563 2088 2228 2088 
z
M 1350 2484 
Q 925 2613 709 2878 
Q 494 3144 494 3541 
Q 494 4131 934 4440 
Q 1375 4750 2228 4750 
Q 3075 4750 3515 4442 
Q 3956 4134 3956 3541 
Q 3956 3144 3739 2878 
Q 3522 2613 3097 2484 
Q 3572 2353 3814 2058 
Q 4056 1763 4056 1313 
Q 4056 619 3595 264 
Q 3134 -91 2228 -91 
Q 1319 -91 855 264 
Q 391 619 391 1313 
Q 391 1763 633 2058 
Q 875 2353 1350 2484 
z
M 1631 3419 
Q 1631 3141 1786 2991 
Q 1941 2841 2228 2841 
Q 2509 2841 2662 2991 
Q 2816 3141 2816 3419 
Q 2816 3697 2662 3845 
Q 2509 3994 2228 3994 
Q 1941 3994 1786 3844 
Q 1631 3694 1631 3419 
z
" transform="scale(0.015625)"/>
     </defs>
     <use xlink:href="#DejaVuSans-Bold-52"/>
     <use xlink:href="#DejaVuSans-Bold-b2" transform="translate(77.001953 0)"/>
     <use xlink:href="#DejaVuSans-Bold-3d" transform="translate(120.800781 0)"/>
     <use xlink:href="#DejaVuSans-Bold-30" transform="translate(204.589844 0)"/>
     <use xlink:href="#DejaVuSans-Bold-2e" transform="translate(274.169922 0)"/>
     <use xlink:href="#DejaVuSans-Bold-38" transform="translate(312.158203 0)"/>
     <use xlink:href="#DejaVuSans-Bold-30" transform="translate(381.738281 0)"/>
     <use xlink:href="#DejaVuSans-Bold-33" transform="translate(451.318359 0)"/>
    </g>
   </g>
   <g id="text_21">
    <!-- Final Prediction -->
    <g style="fill: #fff5f5" transform="translate(575.328012 423.9306) scale(0.11 -0.11)">
     <use xlink:href="#DejaVuSans-Bold-46"/>
     <use xlink:href="#DejaVuSans-Bold-69" transform="translate(68.310547 0)"/>
     <use xlink:href="#DejaVuSans-Bold-6e" transform="translate(102.587891 0)"/>
     <use xlink:href="#DejaVuSans-Bold-61" transform="translate(173.779297 0)"/>
     <use xlink:href="#DejaVuSans-Bold-6c" transform="translate(241.259766 0)"/>
     <use xlink:href="#DejaVuSans-Bold-20" transform="translate(275.537109 0)"/>
     <use xlink:href="#DejaVuSans-Bold-50" transform="translate(310.351562 0)"/>
     <use xlink:href="#DejaVuSans-Bold-72" transform="translate(383.642578 0)"/>
     <use xlink:href="#DejaVuSans-Bold-65" transform="translate(432.958984 0)"/>
     <use xlink:href="#DejaVuSans-Bold-64" transform="translate(500.78125 0)"/>
     <use xlink:href="#DejaVuSans-Bold-69" transform="translate(572.363281 0)"/>
     <use xlink:href="#DejaVuSans-Bold-63" transform="translate(606.640625 0)"/>
     <use xlink:href="#DejaVuSans-Bold-74" transform="translate(665.917969 0)"/>
     <use xlink:href="#DejaVuSans-Bold-69" transform="translate(713.720703 0)"/>
     <use xlink:href="#DejaVuSans-Bold-6f" transform="translate(747.998047 0)"/>
     <use xlink:href="#DejaVuSans-Bold-6e" transform="translate(816.699219 0)"/>
    </g>
   </g>
   <g id="patch_20">
    <path d="M 171.561175 162.061127 
Q 189.043507 162.061127 203.730753 162.061127 
" style="fill: none; stroke: #4a5568; stroke-width: 2.5; stroke-linecap: round"/>
    <path d="M 199.730753 160.061127 
L 203.730753 162.061127 
L 199.730753 164.061127 
" style="fill: none; stroke: #4a5568; stroke-width: 2.5; stroke-linecap: round"/>
   </g>
   <g id="patch_21">
    <path d="M 171.561175 263.237969 
Q 189.043507 263.237969 203.730753 263.237969 
" style="fill: none; stroke: #4a5568; stroke-width: 2.5; stroke-linecap: round"/>
    <path d="M 199.730753 261.237969 
L 203.730753 263.237969 
L 199.730753 265.237969 
" style="fill: none; stroke: #4a5568; stroke-width: 2.5; stroke-linecap: round"/>
   </g>
   <g id="patch_22">
    <path d="M 171.561175 382.269548 
Q 189.043507 382.269548 203.730753 382.269548 
" style="fill: none; stroke: #4a5568; stroke-width: 2.5; stroke-linecap: round"/>
    <path d="M 199.730753 380.269548 
L 203.730753 382.269548 
L 199.730753 384.269548 
" style="fill: none; stroke: #4a5568; stroke-width: 2.5; stroke-linecap: round"/>
   </g>
   <g id="patch_23">
    <path d="M 366.391551 263.237969 
Q 383.873882 263.237969 397.443095 263.237969 
" style="fill: none; stroke: #2e7d32; stroke-width: 3.5; stroke-linecap: round"/>
    <path d="M 393.443095 261.237969 
L 397.443095 263.237969 
L 393.443095 265.237969 
" style="fill: none; stroke: #2e7d32; stroke-width: 3.5; stroke-linecap: round"/>
   </g>
   <g id="text_22">
    <!-- 37 -->
    <g style="fill: #2e7d32" transform="translate(376.218466 215.210901) scale(0.11 -0.11)">
     <use xlink:href="#DejaVuSans-Bold-33"/>
     <use xlink:href="#DejaVuSans-Bold-37" transform="translate(69.580078 0)"/>
    </g>
    <!-- Feat -->
    <g style="fill: #2e7d32" transform="translate(370.263856 227.528495) scale(0.11 -0.11)">
     <use xlink:href="#DejaVuSans-Bold-46"/>
     <use xlink:href="#DejaVuSans-Bold-65" transform="translate(64.310547 0)"/>
     <use xlink:href="#DejaVuSans-Bold-61" transform="translate(132.132812 0)"/>
     <use xlink:href="#DejaVuSans-Bold-74" transform="translate(199.613281 0)"/>
    </g>
   </g>
   <g id="patch_24">
    <path d="M 534.997993 157.075081 
Q 549.480364 165.038283 562.493187 172.193446 
" style="fill: none; opacity: 0.5; stroke: #7b1fa2; stroke-width: 1.5; stroke-linecap: round"/>
    <path d="M 559.95175 168.513622 
L 562.493187 172.193446 
L 558.024466 172.018701 
" style="fill: none; opacity: 0.5; stroke: #7b1fa2; stroke-width: 1.5; stroke-linecap: round"/>
   </g>
   <g id="patch_25">
    <path d="M 534.068473 243.565501 
Q 549.476807 209.676115 564.191021 177.31339 
" style="fill: none; opacity: 0.5; stroke: #7b1fa2; stroke-width: 1.5; stroke-linecap: round"/>
    <path d="M 560.714796 180.126905 
L 564.191021 177.31339 
L 564.356097 181.782479 
" style="fill: none; opacity: 0.5; stroke: #7b1fa2; stroke-width: 1.5; stroke-linecap: round"/>
   </g>
   <g id="patch_26">
    <path d="M 533.637902 332.697788 
Q 549.4776 254.311979 564.985125 177.569995 
" style="fill: none; opacity: 0.5; stroke: #7b1fa2; stroke-width: 1.5; stroke-linecap: round"/>
    <path d="M 562.232469 181.094607 
L 564.985125 177.569995 
L 566.15322 181.886887 
" style="fill: none; opacity: 0.5; stroke: #7b1fa2; stroke-width: 1.5; stroke-linecap: round"/>
   </g>
   <g id="patch_27">
    <path d="M 533.70281 416.036512 
Q 549.477241 349.538553 564.864589 284.672362 
" style="fill: none; opacity: 0.5; stroke: #e65100; stroke-width: 1.5; stroke-linecap: round"/>
    <path d="M 561.995346 288.102733 
L 564.864589 284.672362 
L 565.887339 289.025979 
" style="fill: none; opacity: 0.5; stroke: #e65100; stroke-width: 1.5; stroke-linecap: round"/>
   </g>
   <g id="patch_28">
    <path d="M 617.66851 326.992091 
Q 617.66851 334.658607 617.66851 344.561192 
" style="fill: none; stroke: #e65100; stroke-width: 2; stroke-linecap: round"/>
    <path d="M 615.66851 330.992091 
L 617.66851 326.992091 
L 619.66851 330.992091 
" style="fill: none; stroke: #e65100; stroke-width: 2; stroke-linecap: round"/>
   </g>
   <g id="patch_29">
    <path d="M 617.66851 225.81543 
Q 617.66851 284.069524 617.66851 344.559686 
" style="fill: none; stroke: #7b1fa2; stroke-width: 2; stroke-linecap: round"/>
    <path d="M 615.66851 229.81543 
L 617.66851 225.81543 
L 619.66851 229.81543 
" style="fill: none; stroke: #7b1fa2; stroke-width: 2; stroke-linecap: round"/>
   </g>
   <g id="text_23">
    <!-- Figure 2. WEns Weight Ensemble Architecture Diagram -->
    <g transform="translate(149.109158 17.077969) scale(0.13 -0.13)">
     <defs>
      <path id="DejaVuSans-Bold-57" d="M 191 4666 
L 1344 4666 
L 2150 1275 
L 2950 4666 
L 4109 4666 
L 4909 1275 
L 5716 4666 
L 6859 4666 
L 5759 0 
L 4372 0 
L 3525 3547 
L 2688 0 
L 1300 0 
L 191 4666 
z
" transform="scale(0.015625)"/>
     </defs>
     <use xlink:href="#DejaVuSans-Bold-46"/>
     <use xlink:href="#DejaVuSans-Bold-69" transform="translate(68.310547 0)"/>
     <use xlink:href="#DejaVuSans-Bold-67" transform="translate(102.587891 0)"/>
     <use xlink:href="#DejaVuSans-Bold-75" transform="translate(174.169922 0)"/>
     <use xlink:href="#DejaVuSans-Bold-72" transform="translate(245.361328 0)"/>
     <use xlink:href="#DejaVuSans-Bold-65" transform="translate(294.677734 0)"/>
     <use xlink:href="#DejaVuSans-Bold-20" transform="translate(362.5 0)"/>
     <use xlink:href="#DejaVuSans-Bold-32" transform="translate(397.314453 0)"/>
     <use xlink:href="#DejaVuSans-Bold-2e" transform="translate(466.894531 0)"/>
     <use xlink:href="#DejaVuSans-Bold-20" transform="translate(504.882812 0)"/>
     <use xlink:href="#DejaVuSans-Bold-57" transform="translate(539.697266 0)"/>
     <use xlink:href="#DejaVuSans-Bold-45" transform="translate(650 0)"/>
     <use xlink:href="#DejaVuSans-Bold-6e" transform="translate(718.310547 0)"/>
     <use xlink:href="#DejaVuSans-Bold-73" transform="translate(789.501953 0)"/>
     <use xlink:href="#DejaVuSans-Bold-20" transform="translate(849.023438 0)"/>
     <use xlink:href="#DejaVuSans-Bold-57" transform="translate(883.837891 0)"/>
     <use xlink:href="#DejaVuSans-Bold-65" transform="translate(990.515625 0)"/>
     <use xlink:href="#DejaVuSans-Bold-69" transform="translate(1058.337891 0)"/>
     <use xlink:href="#DejaVuSans-Bold-67" transform="translate(1092.615234 0)"/>
     <use xlink:href="#DejaVuSans-Bold-68" transform="translate(1164.197266 0)"/>
     <use xlink:href="#DejaVuSans-Bold-74" transform="translate(1235.388672 0)"/>
     <use xlink:href="#DejaVuSans-Bold-20" transform="translate(1283.191406 0)"/>
     <use xlink:href="#DejaVuSans-Bold-45" transform="translate(1318.005859 0)"/>
     <use xlink:href="#DejaVuSans-Bold-6e" transform="translate(1386.316406 0)"/>
     <use xlink:href="#DejaVuSans-Bold-73" transform="translate(1457.507812 0)"/>
     <use xlink:href="#DejaVuSans-Bold-65" transform="translate(1517.029297 0)"/>
     <use xlink:href="#DejaVuSans-Bold-6d" transform="translate(1584.851562 0)"/>
     <use xlink:href="#DejaVuSans-Bold-62" transform="translate(1689.050781 0)"/>
     <use xlink:href="#DejaVuSans-Bold-6c" transform="translate(1760.632812 0)"/>
     <use xlink:href="#DejaVuSans-Bold-65" transform="translate(1794.910156 0)"/>
     <use xlink:href="#DejaVuSans-Bold-20" transform="translate(1862.732422 0)"/>
     <use xlink:href="#DejaVuSans-Bold-41" transform="translate(1897.546875 0)"/>
     <use xlink:href="#DejaVuSans-Bold-72" transform="translate(1974.939453 0)"/>
     <use xlink:href="#DejaVuSans-Bold-63" transform="translate(2024.255859 0)"/>
     <use xlink:href="#DejaVuSans-Bold-68" transform="translate(2083.533203 0)"/>
     <use xlink:href="#DejaVuSans-Bold-69" transform="translate(2154.724609 0)"/>
     <use xlink:href="#DejaVuSans-Bold-74" transform="translate(2189.001953 0)"/>
     <use xlink:href="#DejaVuSans-Bold-65" transform="translate(2236.804688 0)"/>
     <use xlink:href="#DejaVuSans-Bold-63" transform="translate(2304.626953 0)"/>
     <use xlink:href="#DejaVuSans-Bold-74" transform="translate(2363.904297 0)"/>
     <use xlink:href="#DejaVuSans-Bold-75" transform="translate(2411.707031 0)"/>
     <use xlink:href="#DejaVuSans-Bold-72" transform="translate(2482.898438 0)"/>
     <use xlink:href="#DejaVuSans-Bold-65" transform="translate(2532.214844 0)"/>
     <use xlink:href="#DejaVuSans-Bold-20" transform="translate(2600.037109 0)"/>
     <use xlink:href="#DejaVuSans-Bold-44" transform="translate(2634.851562 0)"/>
     <use xlink:href="#DejaVuSans-Bold-69" transform="translate(2717.859375 0)"/>
     <use xlink:href="#DejaVuSans-Bold-61" transform="translate(2752.136719 0)"/>
     <use xlink:href="#DejaVuSans-Bold-67" transform="translate(2819.617188 0)"/>
     <use xlink:href="#DejaVuSans-Bold-72" transform="translate(2891.199219 0)"/>
     <use xlink:href="#DejaVuSans-Bold-61" transform="translate(2940.515625 0)"/>
     <use xlink:href="#DejaVuSans-Bold-6d" transform="translate(3007.996094 0)"/>
    </g>
   </g>
  </g>
 </g>
 <defs>
  <clipPath id="p84aea5c43a">
   <rect x="7.2" y="37.077969" width="688.40066" height="452.32"/>
  </clipPath>
 </defs>
</svg>
